<?xml version="1.0" encoding="UTF-8" standalone="no"?>
<!-- Created using Krita: https://krita.org -->

<svg
   width="987.2254pt"
   height="931.21368pt"
   viewBox="0 0 987.22541 931.21369"
   version="1.1"
   id="svg1"
   xmlns="http://www.w3.org/2000/svg"
   xmlns:svg="http://www.w3.org/2000/svg">
  <defs
     id="defs1" />
  <path
     id="shape0"
     fill="none"
     stroke="#000000"
     stroke-width="1"
     stroke-linecap="square"
     stroke-linejoin="miter"
     stroke-miterlimit="2"
     d="M 926.7124,0.49999989 V 1.5002299 h -2 v 1.00023 h -1.001 v 1.00023 h -2 v 1.00023 h -2 v 1.0002 h -1.001 v 1.0003 h -2 v 1.0002 h -2.001 v 1.0002 h -2 v 1.0002 h -2.001 V 10.50232 h -1 v 1.0002 h -2 v 1.0002 h -2.001 v 1.0003 h -2 v 1.0002 h -2.001 v 1.0002 h -2 v 1.0003 h -2 v 1.0002 h -2.001 v 1.0002 h -2 v 1.0002 h -2.001 v 1.0003 h -1 v 1.0002 h -2.001 v 1.0002 h -2 v 1.0003 h -2 v 1.0002 h -2.001 v 1.0002 h -2 v 1.0002 h -2.001 v 1.0003 h -2 v 1.0002 h -2.001 v 1.0002 h -1 v 1.0003 h -2 v 1.0002 h -2.001 v 1.0002 h -2 v 1.0003 h -2.001 v 1.0002 h -2 v 1.0002 h -2.001 v 1.0002 h -2 v 1.0003 h -2.001 v 1.0002 h -2 v 1.0002 h -1 v 1.0003 h -2.001 v 1.0002 h -2 v 1.0002 h -2.001 v 1.0002 h -2 v 1.0003 h -2.001 v 1.0002 h -2 v 1.0002 h -2.001 v 1.0003 h -2 v 1.0002 h -1 v 1.0002 h -2.001 v 1.0003 h -2 v 1.0002 h -2.001 v 1.0002 h -2 v 1.0002 h -2.001 v 1.0003 h -2 v 1.0002 h -2 v 1.0002 h -2.001 v 1.0003 h -2 v 1.0002 h -1.001 v 1.0002 h -2 v 1.0003 h -2.001 v 1.0002 h -2 v 1.0002 h -2 v 1.0002 h -2.001 v 1.0003 h -2 v 1.0002 h -2.001 v 1.0002 h -2 v 1.0003 h -1.001 v 1.0002 h -2 v 1.0002 h -2 v 1.0002 h -2.001 v 1.0003 h -2 v 1.0002 h -2.001 v 1.0002 h -2 v 1.0003 h -2.001 v 1.0002 h -2 v 1.0002 h -2.001 v 1.0003 h -2 v 1.0002 h -2.001 v 1.0002 h -1 v 1.0002 h -2 v 1.0003 h -2.001 v 1.0002 h -2 v 1.0002 h -2.001 v 1.0003 h -2 v 1.0002 h -2.001 v 1.0002 h -2 v 1.0002 h -2 v 1.0003 h -2.001 v 1.0002 h -2 v 1.0002 h -1.001 v 1.0003 h -2 v 1.0002 h -2.001 v 1.0002 h -2 v 1.0003 h -2 v 1 h -2.001 v 1 h -2 v 1.001 h -2.001 v 1 h -2 v 1 h -2.001 v 1 h -2 v 1.001 h -1 v 1 h -2.001 v 1 h -2 v 1 h -2.001 v 1 h -2 v 1.001 h -2.001 v 1 h -2 v 1 h -2.001 v 1 h -2 v 1.001 h -2.001 v 1 h -2 v 1 h -1 v 1 h -2.001 v 1.001 h -2 v 1 h -2.001 v 1 h -2 v 1 h -2.001 v 1 h -2 v 1.001 h -2 v 1 h -2.001 v 1 h -2 v 1 h -2.001 v 1.001 h -1 v 1 h -2.001 v 1 h -2 v 1 h -2 v 1.001 h -2.001 v 1 h -2 v 1 h -2.001 v 1 h -2 v 1 h -2.001 v 1.001 h -2 v 1 h -2.001 v 1 h -2 v 1 h -1 v 1.001 h -2.001 v 1 h -2 v 1 h -2.001 v 1 h -2 v 1.001 h -2.001 v 1 h -2 v 1 h -2.001 v 1 h -2 v 1 h -2.001 v 1.001 h -2 v 1 h -1 v 1 h -2.001 v 1 h -2 v 1.001 h -2.001 v 1 h -2 v 1 h -2 v 1 h -2.001 v 1.001 h -2 v 1 h -2.001 v 1 h -2 v 1 h -2.001 v 1 h -1 v 1.001 h -2 v 1 h -2.001 v 1 h -2 v 1 h -2.001 v 1.001 h -2 v 1 h -2.001 v 1 h -2 v 1 h -2.001 v 1 h -2 v 1.001 h -2.001 v 1 h -1 v 1 h -2 v 1 h -2.001 v 1.001 h -2 v 1 h -2.001 v 1 h -2 v 1 h -2.001 v 1.001 h -2 v 1 h -2.001 v 1 h -2 v 1 h -2 v 1 h -2.001 v 1.001 h -1 v 1 h -2.001 v 1 h -2 v 1 h -2 v 1.001 h -2.001 v 1 h -2 v 1 h -2.001 v 1 h -2 v 1.001 h -2.001 v 1 h -2 v 1 h -2.001 v 1 h -1 v 1 h -2 v 1.001 h -2.001 v 1 h -2 v 1 h -2.001 v 1 h -2 v 1.001 h -2.001 v 1 h -2 v 1 h -2.001 v 1 h -2 v 1.001 h -2.001 v 1 h -1 v 1 h -2 v 1 h -2.001 v 1 h -2 v 1.001 h -2.001 v 1 h -2 v 1 h -2.001 v 1 h -2 v 1.001 h -2 v 1 h -2.001 v 1 h -2 v 1 h -2.001 v 1.001 h -2 v 1 h -2.001 v 1 h -1 v 1 h -2 v 1 h -2.001 v 1.001 h -2 v 1 h -2.001 v 1 h -2 v 1 h -2.001 v 1.001 h -2 v 1 h -2.001 v 1 h -2 v 1 h -1 v 1 h -1.001 v 5.002 h 1.001 v 4.001 h 1 v 4 h 1 v 4.001 h 1 v 4.001 h 1.001 v 4.001 h 1 v 4.001 h 1 v 4.001 h 1 v 4.001 h 1.001 v 5.001 h 1 v 4.001 h 1 v 4.001 h 1 v 4.001 h 1 v 5.001 h 1.001 v 4.001 h 1 v 5.001 h 1 v 5.001 h 1 v 5.001 h 1.001 v 6.002 h 1 v 6.001 h 1 v 6.002 h 1 v 6.001 h 1.001 v 8.002 h 1 v 8.002 h 1 v 12.002 h 1 v 18.004 h 1 v 1.001 h -1 v 16.003 h -1 v 8.002 h -1 v 6.002 h -1 v 4 h -1.001 v 3.001 h -1 v 4.001 h -1 v 2.001 h -1 v 3 h -1.001 v 2.001 h -1 v 2 h -1 v 2.001 h -1 v 2 h -1.001 v 2.001 h -1 v 2 h -1 v 2 h -1 v 1.001 h -1 v 2 h -1.001 v 1 h -1 v 2.001 h -1 v 2 h -1 v 1.001 h -1.001 v 1 h -1 v 2 h -1 v 1 h -1 v 2.001 h -1.001 v 1 h -1 v 1 h -1 v 2.001 h -1 v 1 h -1 v 1 h -1.001 v 2.001 h -1 v 1 h -1 v 1 h -1 v 1 h -1.001 v 2.001 h -1 v 1 h -1 v 1 h -1 v 1.001 h -1.001 v 1 h -1 v 2 h -1 v 1.001 h -1 v 1 h -1 v 1 h -1.001 v 2 h -1 v 1.001 h -1 v 1 h -1 v 1 h -1.001 v 1 h -1 v 2.001 h -1 v 1 h -1 v 1 h -1.001 v 1 h -1 v 2.001 h -1 v 1 h -1 v 1 h -1 v 1.001 h -1.001 v 1 h -1 v 1 h -2 v 1 h -2.001 v 1.001 h -4.001 v 1 h -1 v -1 h -5.001 v -1.001 h -2.001 v -1 h -2 v -1 h -2 v -1 h -1.001 v -1.001 h -2 v -1 h -1 v -1 h -2.001 v -1 h -1 v -1.001 h -2.001 v -1 h -1 v -1 h -1 v -1 h -2 v -1 h -1.001 v -1.001 h -1 v -1 h -1 v -1 h -2.001 v -1 h -1 v -1.001 h -1 v -1 h -1 v -1 h -1.001 v -1 h -1 v -1 h -1 v -1.001 h -2 v -1 h -1.001 v -1 h -1 v -1 h -1 v -1.001 h -1 v -1 h -1.001 v -1 h -2 v 8.002 h -1 v -60.014 h -1.001 v -7.002 h -1 v -5.001 h -1 v -5.001 h -1 v -4.001 h -1 v -4.001 h -1.001 v -3 h -1 v -3.001 h -1 v -3.001 h -1 v -3.001 h -1.001 v -3 h -1 v -3.001 h -1 v -2 h -1 v -3.001 h -1.001 v -2.001 h -1 v -2 h -1 v -2 h -1 v -3.001 h -1 v -2.001 h -1.001 v -1 h -1 v -2 h -1 v -2.001 h -1 v -2 h -1.001 v -2.001 h -1 v -2 h -1 v -1 h -1 v -2.001 h -1 v -1 h -1.001 v -2 h -1 v -1.001 h -1 v -2 h -1 v -2.001 h -1.001 v -1 h -1 v -1 h -1 v -2.001 h -1 v -1 h -1.001 v -1 h -1 v -2 h -1 v -1.001 h -1 v -1 h -1 v -2 h -1.001 v -1.001 h -1 v -1 h -1 v -1 h -1 v -1 h -1.001 v -1.001 h -1 v -2 h -1 v -1 h -1 v -1 h -1.001 v -1.001 h -1 v -1 h -1 v -1 h -1 v -1 h -1 v -1.001 h -1.001 v -1 h -1 v -1 h -1 v -1 h -1 v -1.001 h -1.001 v -1 h -1 v -1 h -1 v -1 h -1 v -1 h -2.001 v -1.001 h -1 v -1 h -1 v -1 h -1 v -1 h -1.001 v -1.001 h -2 v -1 h -1 v -1 h -1.001 v -1 h -1 v -1.001 h -2 v -1 h -1.001 v -1 h -1 v -1 h -2 v -1 h -1 v -1.001 h -2.001 v -1 h -1 v -1 h -2.001 v -1 h -1 v -1.001 h -2 v -1 h -1 v -1 h -2.001 v -1 h -2 v -1 h -1.001 v -1.001 h -2 v -1 h -2.001 v -1 h -2 v -1 h -2 v -1.001 h -2.001 v -1 h -2 v -1 h -2.001 v -1 h -2 v -1.001 h -2.001 v -1 h -3 v -1 h -2.001 v -1 h -2 v -1 h -3.001 v -1.001 h -3.001 v -1 h -2 v -1 h -3.001 v -1 h -3.001 v -1.001 h -3 v -1 h -3.001 v -1 h -3.001 v -1 h -4.001 v -1.001 h -3 v -1 h -4.001 v -1 h -4.001 v -1 h -5.001 v -1 h -5.001 v -1.001 h -5.002 v -1 h -6.001 v -1 h -7.002 v -1 h -9.002 v -1.001 h -7.001 v -1 h 4.001 v -1 h 4.001 v -1 h 3 v -1.001 h 4.001 v -1 h 4.001 v -1 h 6.002 v -1 h 7.001 v -1 h 41.01 v 1 h 7.001 v 1 h 6.002 v 1 h 4 v 1 h 4.001 v 1.001 h 4.001 v 1 h 4.001 v 1 h 3.001 v 1 h 4.001 v 1.001 h 2 v 1 h 3.001 v 1 h 2 v 1 h 3.001 v 1.001 h 2.001 v 1 h 2 v 1 h 3.001 v 1 h 2 v 1 h 2.001 v 1.001 h 2 v 1 h 2.001 v 1 h 2 v 1 h 1 v 1.001 h 2.001 v 1 h 2 v 1 h 2.001 v 1 h 1 v 1.001 h 2 v 1 h 1.001 v 1 h 2 v 1 h 1 v 1 h 2.001 v 1.001 h 1 v 1 h 2 v 1 h 1.001 v 1 h 1 v 1.001 h 2 v 1 h 1.001 v 1 h 1 v 1 h 2 v 1.001 h 1 v 1 h 1.001 v 1 h 1 v 1 h 1 v 1 h 2.001 v 1.001 h 1 v 1 h 1 v 1 h 1 v 1 h 1.001 v 1.001 h 1 v 1 h 1 v 1 h 1 v 1 h 1 v 1 h 1.001 v 1.001 h 1 v 1 h 1 v 1 h 1 v 1 h 1.001 v 1.001 h 1 v 1 h 1 v 2 h 1 v 1.001 h 1 v 1 h 1.001 v 1 h 1 v 1 h 1 v 1 h 1 v 2.001 h 1.001 v 1 h 1 v 1 h 1 v 2.001 h 1 v 1 h 1.001 v 1 h 1 v 2.001 h 1 v 1 h 1 v 1 h 1 v 2.001 h 1.001 v 1 h 1 v 2 h 1 v 1.001 h 1 v 2 h 1.001 v 2.001 h 1 v 1 h 1 v 2 h 1 v 2.001 h 1.001 v 2 h 1 v 1 h 1 v 2.001 h 1 v 2 h 1 v 2.001 h 1.001 v 2 h 1 v 2.001 h 1 v 2 h 1 v 3.001 h 1.001 v 2 h 1 v 2.001 h 1 v 3 h 1 v 2.001 h 1.001 v 3.001 h 1 v 3 h 1 v 4.001 h 1 v 3.001 h 1 v 4.001 h 1.001 v 4.001 h 1 v 4.001 h 1 v 5.001 h 1 v 6.001 h 1.001 v 6.002 h 1 v 6.001 h 1 v 7.001 h 1 v 8.002 h 1.001 v 7.002 h 1 v 3.001 h 1 v -2.001 h 1 v -3.001 h 1 v -4 h 1.001 v -4.001 h 1 v -3.001 h 1 v -4.001 h 1 v -5.001 h 1.001 v -5.001 h 1 v -6.002 h 1 v -10.002 h 1 v -21.005 h -1 v -10.002 h -1 v -6.001 h -1 v -5.002 h -1.001 v -4 h -1 v -4.001 h -1 v -3.001 h -1 v -3.001 h -1.001 v -3 h -1 v -3.001 h -1 v -3.001 h -1 v -3.001 h -1 v -2 h -1.001 v -3.001 h -1 v -2 h -1 v -2.001 h -1 v -2 h -1.001 v -2.001 h -1 v -2 h -1 v -2 h -1 v -2.001 h -1.001 v -1 h -1 v -2.001 h -1 v -2 h -1 v -1 h -1 v -2.001 h -1.001 v -1 h -1 v -2 h -1 v -1.001 h -1 v -2 h -1.001 v -1 h -1 v -1.001 h -1 v -2 h -1 v -1 h -1.001 v -1 h -1 v -2.001 h -1 v -1 h -1 v -1 h -1 v -1.001 h -1.001 v -1 h -1 v -1 h -1 v -1 h -1 v -1.001 h -1.001 v -2 h -1 v -1 h -1 v -1 h -1 v -1.001 h -1.001 v -1 h -1 v -1 h -1 v -1 h -1 v -1.001 h -1 v -1 h -2.001 v -1 h -1 v -1 h -1 v -1.001 h -1.001 v -1 h -1 v -1 h -1 v -1 h -1 v -1 h -2.001 v -1.001 h -1 v -1 h -1 v -1 h -1 v -1 h -2.001 v -1.001 h -1 v -1 h -1 v -1 h -2.001 v -1 h -1 v -1.001 h -2 v -1 h -1.001 v -1 h -2 v -1 h -1 v -1 h -2.001 v -1.001 h -2 v -1 h -1.001 v -1 h -2 v -1 h -2 v -1.001 h -2.001 v -1 h -2 v -1 h -2.001 v -1 h -2 v -1.001 h -2.001 v -1 h -3 v -1 h -2.001 v -1 h -3.001 v -1 h -2 v -1.001 h -3.001 v -1 h -3 v -1 h -3.001 v -1 h -3.001 v -1.001 h -3.001 v -1 h -4 v -1 h -3.001 v -1 h -5.001 v -1 h -5.001 v -1.001 h -5.002 v -1 h -5.001 v -1 h -7.001 v -1 h -11.003 v -1.001 h 1 v -1 h 1.001 v -1 h 1 v -1 h 1 v -1.001 h 1 v -2 h 1.001 v -2 h 1 v -2.001 h 1 v -3.001 h 1 v -14.003 h -1 v -3.001 h -1 v -3 h -1 v -2.001 h -1.001 v -1 h -1 v -2 h -1 v -1.001 h -1 v -1 h -1.001 v -1 h -1 v -1 h -1 v -1.001 h -1 v -1 h -1.001 v -1 h -1 v -1 h -1 v -1 h -1 v -1.001 h -2.001 v -1 h -1 v -1 h -2 v -1 h -1.001 v -1.001 h -2 v -1 h -2.001 v -1 h -2 v -1 h -2 v -1 h -2.001 v -1.001 h -3.001 v -1 h -2 v -1 h -3.001 v -1 h -3 v -1.001 h -3.001 v -1 h -3.001 v -1 h -3 v -1 h -3.001 v -1.001 h -3.001 v -1 h -3.001 v -1 h -3 v -1 h -3.001 v -1 h -3.001 v -1.001 h -2 v -1 h -3.001 v -1 h -2 v -1 h -2.001 v -1.001 h -3 v -1 h -2.001 v -1 h -2 v -1 h -2.001 v -1.001 h -2 v -1 h -1 v -1 h -2.001 v -1 h -2 v -1 h -2.001 v -1.001 h -1 v -1 h -2 v -1 h -2.001 v -1 h -1 v -1.001 h -2.001 v -1 h -1 v -1 h -1 v -1 h -2.001 v -1.001 h -1 v -1 h -1 v -1 h -2 v -1 h -1.001 v -1 h -1 v -1.001 h -1 v -1 h -1 v -1 h -1.001 v -1 h -2 v -1.001 h -1 v -1 h -1.001 v -1 h -1 v -2.001 h -1 v -1 h -1 v -1 h -1 v -1 h -1.001 v -1 h -1 v -1.001 h -1 v -2 h -1 v -1 h -1.001 v -1.001 h -1 v -2 h -1 v -1.0003 h -1 v -2.0004 h -1.001 v -1.0003 h -1 v -2.0004 h -1 v -2.0005 h -1 v -2.0004 h -1 v -1.0003 h -1.001 v -2.0004 h -1 v -2.0005 h -1 v -2.0004 h -1 v -3.0007 h -1.001 v -2.0005 h -1 v -2.0005 h -1 v -3.0006 h -1 v -2.0005 h -1.001 v -3.0007 h -1 v -3.0007 h -1 v -3.0007 h -1 v -4.0009 h -1 v -3.0007 h -1.001 v -1.0002 h -1 v 1.0002 h -1 v 1.0003 h -1 v 2.0004 h -1.001 v 1.0002 h -1 v 2.0005 h -1 v 2.0005 h -1 v 2.0004 h -1 v 3.0007 h -1.001 v 2.0005 h -1 v 3.0007 h -1 v 4.0009 h -1 v 5.0011 h -1.001 v 27.0062 h 1.001 v 5.001 h 1 v 4.001 h 1 v 3.001 h 1 v 2 h 1.001 v 3.001 h 1 v 2 h 1 v 2.001 h 1 v 2 h 1 v 2.001 h 1.001 v 1 h 1 v 2 h 1 v 2.001 h 1 v 1 h 1.001 v 1 h 1 v 2.001 h 1 v 1 h 1 v 1 h 1 v 1.001 h 1.001 v 2 h 1 v 1 h 1 v 1 h 1 v 1.001 h 1.001 v 1 h 1 v 1 h 1 v 1 h 1 v 1.001 h 1.001 v 1 h 1 v 1 h 1 v 1 h 1 v 1.001 h 1 v 1 h 1.001 v 1 h 2 v 1 h 1 v 1 h 1.001 v 1.001 h 1 v 1 h 2 v 1 h 1.001 v 1 h 1 v 1.001 h 2 v 1 h 1 v 1 h 1.001 v 1 h 2 v 1 h 2.001 v 1.001 h 1 v 1 h 2 v 1 h 2.001 v 1 h 1 v 1.001 h 2 v 1 h 2.001 v 1 h 2 v 1 h 2.001 v 1.001 h 2 v 1 h 3.001 v 1 h 2 v 1 h 2.001 v 1 h 2 v 1.001 h 2.001 v 1 h 2 v 1 h 2.001 v 1 h 2 v 1.001 h 1 v 1 h 2.001 v 1 h 2 v 1 h 2.001 v 1.001 h 2 v 1 h 1 v 1 h 2.001 v 1 h 1 v 1 h 2.001 v 1.001 h 1 v 1 h 1 v 1 h 1 v 1 h 1.001 v 1.001 h 1 v 2 h 1 v 1 h 1 v 5.001 h 1 v 1.001 h -1 v 5.001 h -1 v 2 h -1 v 2.001 h -1 v 1 h -1.001 v 1 h -1 v 1 h -2 v 1.001 h -2.001 v 1 h -1 v 1 h -2.001 v 1 h -2 v 1.001 h -2 v 1 h -3.001 v 1 h -2.001 v 1 h -2 v 1 h -2.001 v -13.002 h -1 v -3.001 h -1 v -2.001 h -1 v -2 h -1 v -2.001 h -1.001 v -1 h -1 v -1 h -1 v -1 h -1 v -1 h -1.001 v -1.001 h -1 v -1 h -1 v -1 h -1 v -1 h -1 v -1.001 h -1.001 v -1 h -2 v -1 h -1 v -1 h -2.001 v -1.001 h -1 v -1 h -2.001 v -1 h -2 v -1 h -2 v -1 h -2.001 v -1.001 h -2 v -1 h -2.001 v -1 h -2 v -1 h -3.001 v -1.001 h -2 v -1 h -3.001 v -1 h -2.001 v -1 h -2 v -1.001 h -2.001 v -1 h -3 v -1 h -2.001 v -1 h -2 v -1 h -2.001 v -1.001 h -2 v -1 h -2.001 v -1 h -1 v -1 h -2 v -1.001 h -2.001 v -1 h -2 v -1 h -1 v -1 h -2.001 v -1.001 h -1 v -1 h -2 v -1 h -1.001 v -1 h -2 v -1 h -1 v -1.001 h -1.001 v -1 h -2 v -1 h -1 v -1 h -1.001 v -1.001 h -1 v -1 h -2 v -1 h -1 v -1 h -1.001 v -1 h -1 v -1.001 h -1 v -1 h -1 v -1 h -1.001 v -1 h -1 v -1.001 h -1 v -1 h -1 v -2 h -1.001 v -1.001 h -1 v -1 h -1 v -1 h -1 v -2 h -1 v -1.001 h -1.001 v -2 h -1 v -1 h -1 v -2.001 h -1 v -2 h -1.001 v -2.001 h -1 v -2 h -1 v -2.001 h -1 v -2 h -1.001 v -2.001 h -1 v -2 h -1 v -3.001 h -1 v -3 h -1 v -3.001 h -1.001 v -4.001 h -1 v -4.001 h -1 v -4.001 h -1 v -6.0013 h -1.001 v -3.0007 h -1 v -1.0002 h -1 v 1.0002 h -1 v 1.0003 h -1.001 v 2.0004 h -1 v 2.0003 h -1 v 2.001 h -1 v 2 h -1 v 2.001 h -1.001 v 2 h -1 v 3.001 h -1 v 3 h -1 v 4.001 h -1.001 v 5.001 h -1 v 27.007 h 1 v 6.001 h 1.001 v 4.001 h 1 v 3.001 h 1 v 3 h 1 v 3.001 h 1.001 v 2 h 1 v 2.001 h 1 v 2 h 1 v 2.001 h 1 v 2 h 1.001 v 2.001 h 1 v 1 h 1 v 2 h 1 v 1.001 h 1.001 v 2 h 1 v 1 h 1 v 1.001 h 1 v 2 h 1.001 v 1 h 1 v 1.001 h 1 v 1 h 1 v 1 h 1 v 1 h 1.001 v 1 h 1 v 2.001 h 1 v 1 h 1 v 1 h 2.001 v 1.001 h 1 v 1 h 1 v 1 h 1.001 v 1 h 1 v 1.001 h 1 v 1 h 1 v 1 h 2.001 v 1 h 1 v 1 h 1 v 1.001 h 2.001 v 1 h 1 v 1 h 1 v 1 h 2.001 v 1.001 h 2 v 1 h 1 v 1 h 2.001 v 1 h 2 v 1.001 h 2.001 v 1 h 2 v 1 h 2.001 v 1 h 2 v 1 h 2 v 1.001 h 3.001 v 1 h 2.001 v 1 h 2 v 1 h 2 v 1.001 h 2.001 v 1 h 2 v 1 h 2.001 v 1 h 1 v 1 h 2.001 v 1.001 h 1 v 1 h 2 v 2 h -3 v 1.001 h -3.001 v 1 h -2.001 v 1 h -2 v 1 h -2.001 v 1.001 h -2 v 1 h -2 v 1 h -2.001 v 1 h -2 v 1 h -2.001 v 1.001 h -2 v 1 h -2.001 v 1 h -2 v 1 h -2.001 v 1.001 h -2 v 1 h -1 v 1 h -2.001 v 1 h -2 v 1.001 h -2.001 v 1 h -2 v 1 h -2.001 v 1 h -2 v 1 h -2.001 v 1.001 h -2 v 1 h -2 v 1 h -2.001 v 1 h -1 v 1.001 h -2.001 v 1 h -1 v 1 h -2 v 1 h -1.001 v 1.001 h -1 v 2 h -1 v 1 h -1 v 3.001 h -1 v 3.001 h -1.001 v 3 h -1 v 4.001 h -1 v 3.001 h -1 v 2 h -1.001 v 2.001 h -1 v 2 h -1 v 1 h -1 v 1.001 h -1.001 v 1 h -1 v 1 h -1 v 1 h -1 v 1.001 h -1 v 1 h -2.001 v 1 h -1 v 1 h -1 v 1.001 h -1.001 v 1 h -1 v 1 h -1 v 1 h -1.0003 v 1 h -1.0002 v 1.001 h -1.0002 v 1 h -1.0003 v 1 h -1.0002 v 1 H 74.517 v 1.001 h -1.0003 v 1 h -1.0002 v 1 h -1.0002 v 1 h -1.0002 v 1.001 h -1.0003 v 1 h -1.0002 v 1 h -1.0002 v 1 h -1.0003 v 1 h -2.0004 v 1.001 h -1.0002 v 1 h -1.0003 v 1 H 61.514 v 1 h -1.0002 v 1.001 h -1.0003 v 1 h -1.0002 v 2 h -1.0002 v 1.001 h -1.0003 v 1 h -1.0002 v 1 h -1.0002 v 1 h -1.0002 v 1 h -1.0003 v 1.001 h -1.0002 v 1 h -1.0002 v 1 h -1.0003 v 2.001 H 48.511 v 1 h -1.0002 v 1 h -1.0002 v 1 h -1.0003 v 2.001 h -1.0002 v 1 h -1.0002 v 2 h -1.0003 v 1.001 h -1.0002 v 2 h -1.0002 v 3.001 h 14.0032 v -1 h 7.0016 v -1.001 h 5.0011 v -1 h 4.001 v -1 h 4.0009 v -1 h 2.0004 v 1 h -1.0002 v 1 H 74.517 v 1 h -1.0003 v 2.001 h -1.0002 v 1 h -1.0002 v 1 h -1.0002 v 1 h -1.0003 v 2.001 h -1.0002 v 1 h -1.0002 v 1 h -1.0003 v 1.001 h -1.0002 v 1 h -1.0002 v 1 h -1.0002 v 1 h -1.0003 v 1.001 H 61.514 v 1 h -1.0002 v 1 h -1.0003 v 1 h -2.0004 v 1 h -1.0003 v 3.001 h 1.0003 v 1 h 1.0002 v 1.001 h 1.0002 v 1 h 1.0003 v 1 h 1.0002 v 1 h 1.0002 v 1.001 h 1.0003 v 1 h 1.0002 v 1 h 1.0002 v 1 h 1.0002 v 1 h 2.0005 v 1.001 h 1.0002 v 1 h 2.0005 v 1 h 2.0004 v 1 h 3.0007 v 1.001 h 3.0007 v 1 h 4.0013 v 1 h 24.005 v -1 h 7.002 v -1 h 5.001 v -1.001 h 6.001 v -1 h 5.001 v -1 h 6.002 v -1 h 6.001 v -1.001 h 5.001 v 1.001 h -1 v 3 h -1 v 3.001 h -1 v 3.001 h -1.001 v 2 h -1 v 3.001 h -1 v 2 h -1 v 3.001 h -1 v 2.001 h -1.001 v 2 h -1 v 2 h 11.003 v -1 h 9.002 v -1 h 7.001 v -1 h 5.001 v -1 h 4.001 v -1.001 h 3.001 v -1 h 3.001 v -1 h 3 v -1 h 3.001 v -1.001 h 2.001 v -1 h 2 v -1 h 2 v -1 h 2.001 v -1.001 h 2 v -1 h 1.001 v -1 h 2 v -1 h 2.001 v -1 h 1 v -1.001 h 1 v -1 h 2 v -1 h 1.001 v -1 h 1 v -1.001 h 1 v -1 h 1 v -1 h 1.001 v -1 h 1 v -1.001 h 1 v -1 h 1 v -1 h 1 v -1 h 1.001 v -1 h 1 v -1.001 h 1 v -1 h 1 v -1 h 1.001 v -1 h 1 v -2.001 h 1 v -1 h 1 v -1 h 1.001 v -2.001 h 1 v -2 h 1 v -1 h 1 v -2.001 h 1 v -2 h 1.001 v -2.001 h 1 v -3.001 h 1 v -3 h 1 v -3.001 h 1.001 v -4.001 h 1 v -5.001 h 1 v -7.002 h 1 v -19.004 h -1 v -4.001 h 1 v 3.001 h 1.001 v 3.001 h 1 v 3 h 1 v 3.001 h 1 v 4.001 h 1 v 4.001 h 1.001 v 5.001 h 1 v 6.001 h 1 v 19.005 h 1 v 1 h -1 v 19.004 h -1 v 5.001 h -1 v 4.001 h -1.001 v 3.001 h -1 v 3.001 h -1 v 2 h -1 v 2.001 h -1 v 2 h -1.001 v 2.001 h -1 v 2 h -1 v 2 h -1 v 1.001 h -1.001 v 2 h -1 v 1 h -1 v 2.001 h -1 v 1 h -1.001 v 1 h -1 v 2.001 h -1 v 1 h -1 v 1 h -1 v 1 h -1.001 v 1.001 h -1 v 1 h -1 v 1 h -1 v 1 h -1.001 v 1.001 h -1 v 1 h -1 v 1 h -1 v 1 h -1.001 v 1 h -1 v 1.001 h -1 v 1 h -1 v 1 h -1 v 1 h -2.001 v 1.001 h -1 v 1 h -1 v 1 h -1.001 v 1 h -1 v 1.001 h -1 v 1 h -2 v 1 h -1.001 v 1 h -1 v 1 h -1 v 1.001 h -1 v 1 h -1.001 v 1 h -2 v 1 h -1 v 1.001 h -1.001 v 1 h -1 v 1 h -1 v 1 h -1 v 1.001 h -1 v 1 h -1.001 v 1 h -1 v 1 h -1 v 1 h -1 v 1.001 h -1.001 v 1 h -1 v 1 h -1 v 1 h -1 v 1.001 h -1.001 v 2 h -1 v 1 h -1 v 1.001 h -1 v 1 h -1 v 2 h -1.001 v 1 h -1 v 2.001 h -1 v 1 h -1 v 2.001 h -1.001 v 2 h -1 v 2.001 h -1 v 2 h -1 v 3.001 h -1.001 v 2 h -1 v 3.001 h -1 v 3 h -1 v 5.002 h -1 v 8.001 h -1.001 v 15.004 h 1.001 v 7.002 h 1 v 5.001 h 1 v 3 h 1 v 3.001 h 1 v 2.001 h 1.001 v 3 h 1 v 2.001 h 1 v 2 h 1 v 1 h 1.001 v 2.001 h 1 v 2 h 1 v 1 h 1 v 2.001 h 1.001 v 1 h 1 v 1 h 1 v 1.001 h 1 v 2 h 1 v 1 h 1.001 v 1.001 h 1 v 1 h 1 v 1 h 1 v 1 h 1.001 v 1 h 1 v 1.001 h 1 v 1 h 1 v 1 h 1.001 v 1 h 1 v 1.001 h 2 v 1 h 1 v -1 h -1 v -4.001 h -1 v -3.001 h -1 v -4.001 h -1 v -6.001 h -1.001 v -9.002 h -1 v -20.005 h 1 v -8.002 h 1.001 v -4.001 h 1 v -3 h 1 v -3.001 h 1 v -2.001 h 1 v -3 h 1.001 v -2.001 h 1 v -2 h 1 v -2.001 h 1 v -1 h 1.001 v -2 h 1 v -1.001 h 1 v -2 h 1 v -1 h 1.001 v -2.001 h 1 v -1 h 1 v -1 h 1 v -1 h 1 v -2.001 h 1.001 v -1 h 1 v -1 h 1 v -1 h 1 v -1.001 h 1.001 v -1 h 1 v -1 h 1 v -1 h 1 v -1.001 h 1 v -1 h 1.001 v -1 h 1 v -1 h 1 v -1.001 h 1 v -1 h 1.001 v -1 h 1 v -1 h 1 v -1 h 2.001 v -1.001 h 1 v -1 h 1 v -1 h 1 v -1 h 1 v -1.001 h 1.001 v -1 h 1 v -1 h 1 v -1 h 1 v -1.001 h 1.001 v -1 h 1 v -1 h 1 v -1 h 1 v -1 h 1.001 v -1.001 h 1 v -1 h 1 v -1 h 1 v -1 h 1 v -1.001 h 1.001 v -1 h 1 v -1 h 1 v -1 h 1 v -1.001 h 1.001 v -1 h 1 v -1 h 1 v -1 h 1 v -1 h 1.001 v -2.001 h 1 v -1 h 1 v -1 h 1 v -2.001 h 1 v -1 h 1.001 v -2.001 h 1 v -1 h 1 v -2 h 1 v -1 h 1.001 v -2.001 h 1 v -2 h 1 v -3.001 h 1 v -2.001 h 1.001 v -3 h 1 v -3.001 h 1 v -3.001 h 1 v -4 h 1 v -5.002 h 1.001 v -37.008 h -1.001 v -6.002 h -1 v -5.001 h -1 v -4.001 h -1 v -4 h -1 v -3.001 h -1.001 v -4.001 h -1 v -3.001 h -1 v -2 h -1 v -3.001 h -1.001 v -3.001 h -1 v -2 h -1 v -3.001 h -1 v -2 h -1.001 v -3.001 h -1 v -2 h -1 v -2.001 h -1 v -2 h -1 v -2.001 h -1.001 v -2 h -1 v -2.001 h -1 v -1 h -1 v -2 h 1 v 1 h 2 v 1 h 1.001 v 1 h 1 v 1.001 h 1 v 1 h 1 v 1 h 1 v 1 h 1.001 v 1 h 1 v 1.001 h 1 v 1 h 1 v 1 h 1.001 v 1 h 1 v 1.001 h 1 v 1 h 1 v 1 h 1.001 v 1 h 1 v 2.001 h 1 v 1 h 1 v 1 h 1 v 1 h 1.001 v 2.001 h 1 v 1 h 1 v 1 h 1 v 2.001 h 1.001 v 1 h 1 v 2.001 h 1 v 1 h 1 v 2 h 1 v 1 h 1.001 v 2.001 h 1 v 2 h 1 v 2.001 h 1 v 1 h 1.001 v 2.001 h 1 v 2 h 1 v 2 h 1 v 2.001 h 1.001 v 3.001 h 1 v 2 h 1 v 2 h 1 v 3.001 h 1 v 3.001 h 1.001 v 3.001 h 1 v 4 h 1 v 4.001 h 1 v 5.002 h 1.001 v 7.001 h 1 v 12.003 h 1 v 1 h -1 v 12.003 h -1 v 7.001 h -1.001 v 4.001 h -1 v 4.001 h -1 v 4.001 h -1 v 3.001 h -1.001 v 2 h -1 v 2.001 h -1 v 3.001 h -1 v 2 h -1 v 2 h -1.001 v 1.001 h -1 v 2 h -1 v 2.001 h -1 v 2 h -1.001 v 1 h -1 v 2.001 h -1 v 1 h -1 v 2 h -1.001 v 1.001 h -1 v 1 h -1 v 2 h -1 v 1.001 h -1 v 1 h -1.001 v 1 h -1 v 1 h -1 v 2.001 h -1 v 1 h -1.001 v 1 h -1 v 1 h -1 v 1.001 h -1 v 1 h -2.001 v 1 h -1 v 1 h -1 v 1.001 h -1 v 1 h -1.001 v 1 h -1 v 1 h -1 v 1.001 h -1 v 1 h -1.001 v 1 h -1 v 1 h -1 v 1 h -1 v 1.001 h -2.001 v 1 h -1 v 1 h -1 v 1 h -1 v 1.001 h -1.001 v 1 h -1 v 1 h -1 v 1 h -1 v 1 h -1.001 v 1.001 h -1 v 1 h -1 v 1 h -1 v 2.001 h -1 v 1 h -1.001 v 1 h -1 v 1 h -1 v 1.001 h -1 v 1 h -1.001 v 2 h -1 v 1 h -1 v 2.001 h -1 v 1 h -1.001 v 2.001 h -1 v 1 h -1 v 2 h -1 v 2.001 h -1 v 3 h -1.001 v 3.001 h -1 v 3.001 h -1 v 4.001 h -1 v 6.001 h -1.001 v 16.004 h 1.001 v 6.001 h 1 v 4.001 h 1 v 3.001 h 1 v 3 h 1.001 v 2.001 h 1 v 2 h 1 v 2.001 h 1 v 2 h 1 v 2.001 h 1.001 v 1 h 1 v 2 h 1 v 1.001 h 1 v 1 h 1.001 v 2 h 1 v 1.001 h 1 v 1 h 1 v 1 h 1.001 v 1 h 1 v 1.001 h 1 v 1 h 1 v 1 h 1 v 1 h 1.001 v 1 h 1 v 1.001 h 1 v 1 h 1 v 1 h 1.001 v 1 h 2 v 1.001 h 1 v 1 h 2.001 v 1 h 2 v -3.001 h -1 v -2 h -1 v -2.001 h -1 v -2 h -1.001 v -2 h -1 v -3.001 h -1 v -2.001 h -1 v -4.001 h -1.001 v -4 h -1 v -28.007 h 1 v -4.001 h 1.001 v -3 h 1 v -2.001 h 1 v -3.001 h 1 v -2 h 1.001 v -2.001 h 1 v -1 h 1 v -2 h 1 v -2.001 h 1 v -1 h 1.001 v -2 h 1 v -1.001 h 1 v -1 h 1 v -2 h 1.001 v -1.001 h 1 v -1 h 1 v -1 h 1 v -1 h 1.001 v -1 h 1 v -1.001 h 1 v -1 h 1 v -1 h 1 v -1 h 1.001 v -1.001 h 1 v -1 h 1 v -1 h 1 v -1 h 1.001 v -1.001 h 1 v -1 h 1 v -1 h 2 v -1 h 1.001 v -1 h 1 v -1.001 h 1 v -1 h 1 v -1 h 1.001 v -1 h 1 v -1.001 h 2 v -1 h 1.001 v -1 h 1 v -1 h 1 v -1.001 h 1 v -1 h 1 v -1 h 1.001 v -1 h 1 v -1 h 1 v -1.001 h 1 v -1 h 1.001 v -1 h 1 v -1 h 1 v -1.001 h 1 v -1 h 1.001 v -1 h 1 v -1 h 1 v -1 h 1 v -1.001 h 1 v -1 h 1.001 v -1 h 1 v -1 h 1 v -2.001 h 1 v -1 h 1.001 v -1 h 1 v -2.001 h 1 v -1 h 1 v -2 h 1.001 v -2.001 h 1 v -1 h 1 v -2.001 h 1 v -2 h 1 v -2.001 h 1.001 v -2 h 1 v -2 h 1 v -3.001 h 1 v -3.001 h 1.001 v -3.001 h 1 v -3 h 1 v -3.001 h 1 v -4.001 h 1.001 v -5.001 h 1 v -9.002 h 1 v -22.005 h -1 v -9.002 h -1 v -5.001 h -1.001 v -5.001 h -1 v -5.002 h -1 v -3 h -1 v -3.001 h -1.001 v -3.001 h -1 v -3 h -1 v -3.001 h -1 v -2.001 h -1.001 v -3 h -1 v -2.001 h -1 v -2 h -1 v -2.001 h -1 v -2 h -1.001 v -2 h -1 v -2.001 h -1 v -1 h -1 v -2.001 h -1.001 v -2 h -1 v -1 h -1 v -2.001 h -1 v -1 h -1.001 v -1 h -1 v -2.001 h -1 v -1 h -1 v -1 h -1 v -2.001 h -1.001 v -1 h -1 v -1 h -1 v -1 h -1 v -2.001 h -1.001 v -1 h -1 v -1 h -1 v -1 h -1 v -1.001 h -1.001 v -1 h -1 v -1 h -1 v -2.001 h -1 v -1 h -1 v -1 h -1.001 v -1 h -1 v -1.001 h -1 v -1 h -1 v -1 h -1.001 v -1 h -1 v -1 h -1 v -1.001 h -1 v -1 h -1.001 v -1 h -2 v -1 h -1 v -1.001 h -1 v -1 h -1.001 v -1 h -1 v -1 h -1 v -1.001 h -1 v -1 h -1.001 v -1 h -2 v -1 h -1 v -1 h -1 v -1.001 h -1.001 v -1 h -1 v -1 h -2 v -1 h -1.001 v -1.001 h -1 v -1 h -1 v -1 h -2.001 v -1 h -1 v -1 h -1 v -1.001 h -2 v -1 h -1.001 v -1 h -1 v -1 h -1 v -1.001 h -2.001 v -1 h -1 v -1 h -2 v -1 h -1.001 v -1.001 h -1 v -1 h -2 v -1 h -1 v -1 h -1.001 v -1 h 4.001 v 1 h 3.001 v 1 h 4.001 v 1 h 3.001 v 1 h 2 v 1.001 h 3.001 v 1 h 3 v 1 h 2.001 v 1 h 3.001 v 1.001 h 2 v 1 h 2 v 1 h 3.001 v 1 h 2.001 v 1.001 h 2 v 1 h 2 v 1 h 2.001 v 1 h 2 v 1 h 2.001 v 1.001 h 2 v 1 h 1.001 v 1 h 2 v 1 h 2 v 1.001 h 2.001 v 1 h 1 v 1 h 2.001 v 1 h 2 v 1 h 1 v 1.001 h 2.001 v 1 h 1 v 1 h 2 v 1 h 1.001 v 1.001 h 1 v 1 h 2 v 1 h 1.001 v 1 h 1 v 1.001 h 2 v 1 h 1.001 v 1 h 1 v 1 h 1 v 1 h 1 v 1.001 h 2.001 v 1 h 1 v 1 h 1 v 1 h 1 v 1.001 h 1.001 v 1 h 1 v 1 h 1 v 1 h 1 v 1.001 h 1.001 v 1 h 1 v 1 h 1 v 1 h 1 v 1 h 1 v 1.001 h 1.001 v 2 h 1 v 1 h 1 v 1.001 h 1 v 1 h 1.001 v 1 h 1 v 2.001 h 1 v 1 h 1 v 1 h 1 v 2 h 1.001 v 1.001 h 1 v 1 h 1 v 2 h 1 v 1.001 h 1.001 v 2 h 1 v 1 h 1 v 2.001 h 1 v 2 h 1.001 v 2.001 h 1 v 1 h 1 v 2 h 1 v 2.001 h 1 v 2 h 1.001 v 2.001 h 1 v 2 h 1 v 3.001 h 1 v 2 h 1.001 v 3.001 h 1 v 2 h 1 v 3.001 h 1 v 3.001 h 1.001 v 4.001 h 1 v 4.001 h 1 v 5.001 h 1 v 6.001 h 1 v 36.008 h -1 v 6.002 h -1 v 5.001 h -1 v 4.001 h -1 v 3.001 h -1.001 v 4.001 h -1 v 3 h -1 v 2.001 h -1 v 3 h -1.001 v 2.001 h -1 v 2 h -1 v 2.001 h -1 v 2 h -1.001 v 2.001 h -1 v 2 h -1 v 2.001 h -1 v 2 h -1 v 2.001 h -1.001 v 2 h -1 v 1 h -1 v 2.001 h -1 v 1 h -1.001 v 2 h -1 v 2.001 h -1 v 1 h -1 v 2 h -1.001 v 1.001 h -1 v 2 h -1 v 1 h -1 v 2.001 h -1 v 1 h -1.001 v 2.001 h -1 v 1 h -1 v 1 h -1 v 2 h -1.001 v 1.001 h -1 v 2 h -1 v 1 h -1 v 2.001 h -1 v 1 h -1.001 v 1 h -1 v 2.001 h -1 v 1 h -1 v 2 h -1.001 v 1.001 h -1 v 2 h -1 v 1 h -1 v 2.001 h -1.001 v 1 h -1 v 2.001 h -1 v 1 h -1 v 2 h -1 v 1 h -1.001 v 2.001 h -1 v 1 h -1 v 2.001 h -1 v 2 h -1.001 v 1 h -1 v 2.001 h -1 v 2 h -1 v 2.001 h -1.001 v 1 h -1 v 2 h -1 v 2.001 h -1 v 3 h -1 v 2.001 h -1.001 v 2 h -1 v 3.001 h -1 v 2.001 h -1 v 3 h -1.001 v 3.001 h -1 v 3.001 h -1 v 3 h -1 v 3.001 h -1.001 v 3.001 h -1 v 4.001 h -1 v 5.001 h -1 v 5.001 h -1 v 6.001 h -1.001 v 8.002 h -1 v 15.004 h -1 v 22.005 h 1 v 14.003 h 1 v 8.002 h 1.001 v 7.001 h 1 v 6.002 h 1 v 5.001 h 1 v 5.001 h 1 v 4.001 h 1.001 v 4.001 h 1 v 4.001 h 1 v 3 h 1 v 3.001 h 1.001 v 4.001 h 1 v 3.001 h 1 v 3 h 1 v 4.001 h 1.001 v 3.001 h 1 v 3.001 h 1 v 4.001 h 1 v 3 h 1 v 7.002 h -1 v 2 h -1 v 1.001 h -1 v 2 h -1 v 2 h -1.001 v 2.001 h -1 v 2 h -1 v 2.001 h -1 v 3.001 h -1.001 v 2 h -1 v 2 h -1 v 2.001 h -1 v 2 h -1.001 v 2.001 h -1 v 2 h -1 v 2.001 h -1 v 2 h -1 v 2.001 h -1.001 v 2 h -1 v 2.001 h -1 v 2 h -1 v 2.001 h -1.001 v 2 h -1 v 2 h -1 v 2.001 h -1 v 2 h -1.001 v 2.001 h -1 v 2 h -1 v 2.001 h -1 v 2 h -1 v 2.001 h -1.001 v 2 h -1 v 2.001 h -1 v 2 h -1 v 2 h -1.001 v 3.001 h -1 v 2.001 h -1 v 2 h -1 v 2.001 h -1 v 2 h -1.001 v 2 h -1 v 2.001 h -1 v 2 h -1 v 2.001 h -1.001 v 2 h -1 v 2.001 h -1 v 3 h -1 v 2.001 h -1.001 v 1 h -1 v 2.001 h -1 v 2 h -1 v 2.001 h -1 v 2 h -1.001 v 2 h -1 v 2.001 h -1 v 2 h -1 v 2.001 h -1.001 v 1 h -1 v 2.001 h -1 v 2 h -1 v 2 h -1.001 v 2.001 h -1 v 1 h -1 v 2.001 h -1 v 2 h -1 v 2 h -1.001 v 1.001 h -1 v 2 h -1 v 2.001 h -1 v 2 h -1.001 v 2.001 h -1 v 2 h -1 v 2 h -1 v 3.001 h -1.001 v 3.001 h -6.001 v -1 h -9.002 v -1.001 h -7.002 v -1 h -6.001 v -1 h -9.002 v 1 h -1 v 1 h -1 v 1.001 h -1.001 v 1 h -1 v 2 h -1 v 1.001 h -1 v 1 h -1.001 v 1 h -1 v 1 h -1 v 1 h -1 v 1.001 h -1.001 v 1 h -1 v 1 h -1 v 1 h -1 v 2.001 h -1 v 1 h -1.001 v 1 h -1 v 1.001 h -1 v 1 h -1 v 1 h -1.001 v 1 h -1 v 1 h -1 v 1.001 h -1 v 1 h -1.001 v 1 h -1 v 1 h -1 v 1.001 h -1 v 1 h -1 v 1 h -1.001 v 1 h -1 v 1.001 h -1 v 1 h -1 v 1 h -1.001 v 1 h -1 v 1 h -1 v 1.001 h -1 v 1 h -1.001 v 1 h -1 v 1 h -1 v 1.001 h -1 v 1 h -1 v 1 h -1.001 v 1 h -1 v 1 h -1 v 1.001 h -1 v 1 h -1.001 v 1 h -1 v 1 h -1 v 1.001 h 26.006 v -1.001 h 1 v -1 h 2.001 v -1 h 1 v -1 h 1 v -1.001 h 1 v -1 h 2.001 v -1 h 1 v -1 h 1 v -1 h 1 v -1.001 h 1.001 v -1 h 1 v -1 h 2 v -1 h 1.001 v -1.001 h 1 v -1 h 1 v -1 h 1 v -1 h 1.001 v -1 h 2 v -1.001 h 1 v -1 h 1 v -1 h 1.001 v -1 h 1 v -1.001 h 1 v -1 h 1 v -1 h 2.001 v -1 h 1 v -1.001 h 1 v -1 h 1.001 v -1 h 1 v -1 h 1 v 2 h -1 v 2.001 h -1 v 1 h -1.001 v 2 h -1 v 1.001 h -1 v 1 h -1 v 1 h -1.001 v 2.001 h -1 v 1 h -1 v 1 h -1 v 1 h -1.001 v 1 h -1 v 1.001 h -1 v 1 h -1 v 2 h -1 v 1.001 h -1.001 v 1 h -1 v 1 h -1 v 1 h -1 v 1 h -1.001 v 1.001 h -1 v 1 h -1 v 1 h -1 v 1 h -1.001 v 1.001 h 67.016 v -1.001 h 1 v -1 h 1 v -1 h 1.001 v -1 h 1 v -2.001 h 1 v -1 h 1 v -1 h 1 v -1 h 1.001 v -1.001 h 1 v -1 h 1 v -2 h 1 v -1.001 h 1.001 v -1 h 1 v -1 h 1 v -1 h 1 v -1 h 1.001 v -2.001 h 1 v -1 h 1 v -1 h 1 v -1.001 h 1 v -1 h 1.001 v -1 h 1 v -1 h 1 v -2.001 h 1 v -1 h 1.001 v -1 h 1 v -1 h 1 v -1.001 h 1 v -1 h 1 v -1 h 1.001 v -1 h 1 v -1.001 h 1 v -2 h 1 v -1 h 1.001 v -1.001 h 1 v -1 h 1 v -1 h 1 v -1 h 1.001 v -1 h 1 v -1.001 h 1 v -1 h 1 v -1 h 1 v -1 h 1.001 v -2.001 h 1 v -1 h 1 v -1 h 1 v -1.001 h 1.001 v -1 h 1 v -1 h 1 v -1 h 1 v -1 h 1.001 v -1.001 h 1 v -1 h 1 v -1 h 1 v -1 h 1 v -1.001 h 1.001 v -1 h 1 v -2 h 1 v -1.001 h 1 v -1 h 1.001 v -1 h 1 v -1 h 1 v -1 h 1 v -1.001 h 1.001 v -1 h 1 v -1 h 1 v -1 h 1 v -1.001 h 1 v -1 h 1.001 v -1 h 1 v -1 h 1 v -1 h 1 v -1.001 h 1.001 v -2 h 1 v -1 h 1 v -1.001 h 1 v -1 h 1.001 v -1 h 1 v -1 h 1 v -1.001 h 1 v -1 h 1 v -1 h 1.001 v -1 h 1 v -1 h 1 v -1.001 h 1 v -1 h 1.001 v -1 h 1 v -1 h 1 v -1.001 h 1 v -1 h 1 v -2 h 1.001 v -1.001 h 1 v -1 h 1 v -1 h 1 v -1 h 1.001 v -1 h 1 v -1.001 h 1 v -1 h 1 v -1 h 1.001 v -1 h 1 v -1.001 h 1 v -1 h 1 v -1 h 1 v -1 h 1.001 v -1.001 h 1 v -1 h 1 v -1 h 1 v -1 h 1.001 v -1 h 1 v -1.001 h 1 v -2 h 1 v -1 h 1.001 v -1.001 h 1 v -1 h 1 v -1 h 1 v -1 h 1 v -1.001 h 1.001 v -1 h 1 v -1 h 1 v -1 h 1 v -1 h 1.001 v -1.001 h 1 v -1 h 1 v -1 h 1 v -1 h 1.001 v -1.001 h 1 v -1 h 1 v -1 h 1 v -1 h 1 v -1 h 1.001 v -1.001 h 1 v -1 h 1 v -1 h 1 v -1 h 1.001 v -1.001 h 1 v -1 h 1 v -2 h 1 v -1.001 h 1.001 v -1 h 1 v -1 h 1 v -1 h 1 v -1 h 1 v -1.001 h 1.001 v -1 h 1 v -1 h 1 v -1 h 1 v -1.001 h 1.001 v -1 h 1 v -1 h 1 v -1 h 1 v -1.001 h 1 v -1 h 1.001 v -1 h 1 v -1 h 1 v -1 h 1 v -1.001 h 1.001 v -1 h 1 v -1 h 1 v -1 h 1 v -1.001 h 1.001 v -1 h 1 v -1 h 1 v -1 h 1 v -1.001 h 1 v -1 h 1.001 v -2 h 1 v -1 h 1 v -1.001 h 1 v -1 h 1.001 v -1 h 1 v -32.007 h -1 v -13.003 h -1.001 v -12.003 h -1 v -11.003 h -1 v -10.002 h -1 v -9.002 h -1.001 v -9.002 h -1 v -9.002 h -1 v -7.002 h -1 v -8.002 h -1 v -7.001 h -1.001 v -6.002 h -1 v -7.001 h -1 v -7.002 h -1 v -6.001 h -1.001 v -6.002 h -1 v -6.001 h -1 v -6.001 h -1 v -5.002 h -1.001 v -6.001 h -1 v -6.001 h 1 v 4.001 h 1.001 v 4.001 h 1 v 5.001 h 1 v 4.001 h 1 v 4.001 h 1.001 v 4 h 1 v 3.001 h 1 v 4.001 h 1 v 4.001 h 1.001 v 4.001 h 1 v 4.001 h 1 v 4.001 h 1 v 4.001 h 1 v 4.001 h 1.001 v 4 h 1 v 5.002 h 1 v 4.001 h 1 v 5.001 h 1.001 v 5.001 h 1 v 5.001 h 1 v 5.001 h 1 v 5.001 h 1.001 v 5.001 h 1 v 3.001 h 1 v 1 h 1 v -1 h 1 v -2 h 1.001 v -2.001 h 1 v -2 h 1 v -2.001 h 1 v -2 h 1.001 v -2.001 h 1 v -1 h 1 v -2 h 1 v -2.001 h 1.001 v -2 h 1 v -2.001 h 1 v -3 h 1 v -2.001 h 1 v -2 h 1.001 v -2.001 h 1 v -2 h 1 v -2.001 h 1 v -3 h 1.001 v -2.001 h 1 v -2 h 1 v -2.001 h 1 v -3 h 1.001 v -2.001 h 1 v -2 h 1 v -3.001 h 1 v -2.001 h 1 v -2 h 1.001 v -3.001 h 1 v -3 h 1 v -3.001 h 1 v -2 h 1.001 v -3.001 h 1 v -3.001 h 1 v -3.001 h 1 v -3 h 1.001 v -3.001 h 1 v -3.001 h 1 v -2 h 1 v -3.001 h 1 v -3 h 1.001 v -3.001 h 1 v -3.001 h 1 v -2 h 1 v 3 h -1 v 4.001 h -1 v 5.001 h -1 v 5.002 h -1.001 v 5.001 h -1 v 4.001 h -1 v 5.001 h -1 v 4.001 h -1 v 4.001 h -1.001 v 5.001 h -1 v 4.001 h -1 v 4.001 h -1 v 4.001 h -1.001 v 3 h -1 v 4.001 h -1 v 4.001 h -1 v 4.001 h -1.001 v 3.001 h -1 v 4.001 h -1 v 3 h -1 v 4.001 h -1 v 3.001 h -1.001 v 3.001 h -1 v 3 h -1 v 4.001 h -1 v 3.001 h -1.001 v 3.001 h -1 v 3 h -1 v 4.001 h 3.001 v -1 h 6.001 v -1 h 6.001 v -1.001 h 5.002 v -1 h 6.001 v -1 h 6.001 v -1 h 6.002 v -1 h 5.001 v -1.001 h 6.001 v -1 h 6.002 v -1 h 7.001 v -1 h 8.002 v -1.001 h 38.009 v 1.001 h 7.001 v 1 h 6.002 v 1 h 5.001 v 1 h 4.001 v 1.001 h 4.001 v 1 h 3 v 1 h 4.001 v 1 h 3.001 v 1 h 3.001 v 1.001 h 3 v 1 h 2.001 v 1 h 3 v 1 h 2.001 v 1.001 h 3.001 v 1 h 2 v 1 h 2.001 v 1 h 2 v 1.001 h 2 v 1 h 2.001 v 1 h 2 v 1 h 2.001 v 1 h 2 v 1.001 h 2.001 v 1 h 2 v 1 h 2.001 v 1 h 2 v 1.001 h 2.001 v 1 h 1 v 1 h 3.001 v 1 h 1 v -1 h -1 v -1 h -1.001 v -1 h -1 v -1.001 h -2 v -1 h -1.001 v -1 h -1 v -1 h -2 v -1.001 h -1.001 v -1 h -2 v -1 h -1 v -1 h -2.001 v -1 h -1 v -1.001 h -2 v -1 h -1.001 v -1 h -1 v -1 h -2 v -1.001 h -1.001 v -1 h -2 v -1 h -1 v -1 h -2.001 v -1.001 h -1 v -1 h -2 v -1 h -1.001 v -1 h -2 v -1 h -1 v -1.001 h -2.001 v -1 h -2 v -1 h -1 v -1 h -2.001 v -1.001 h -1 v -1 h -2.001 v -1 h -2 v -1 h -2 v -1 h -1.001 v -1.001 h -2 v -1 h -2.001 v -1 h -2 v -1 h -2.001 v -1.001 h -2 v -1 h -3.001 v -1 h -2 v -1 h -2.001 v -1.001 h -2 v -1 h -3.001 v -1 h -2 v -1 h -2.001 v -1 h -2 v -1.001 h -1 v -1 h 4.001 v 1 h 4 v 1.001 h 4.001 v 1 h 4.001 v 1 h 3.001 v 1 h 3.001 v 1 h 4.001 v 1.001 h 2 v 1 h 3.001 v 1 h 2 v 1 h 2.001 v 1.001 h 3 v 1 h 2.001 v 1 h 2 v 1 h 2.001 v 1.001 h 2 v 1 h 2.001 v 1 h 2 v 1 h 2.001 v 1 h 2 v 1.001 h 2 v 1 h 1.001 v 1 h 2 v 1 h 1 v 1.001 h 2.001 v 1 h 2 v 1 h 1.001 v 1 h 2 v 1 h 1 v 1.001 h 2.001 v 1 h 1 v 1 h 2 v 1 h 1.001 v 1.001 h 1 v 1 h 2 v 1 h 1.001 v 1 h 1 v 1.001 h 2 v 1 h 1 v 1 h 1.001 v 1 h 1 v 1 h 2 v 1.001 h 1.001 v 1 h 1 v 1 h 1 v 1 h 1 v 1.001 h 2.001 v 1 h 1 v 1 h 1 v 1 h 1 v 1.001 h 1.001 v 1 h 1 v 1 h 1 v 1 h 1 v 1 h 1.001 v 1.001 h 1 v 1 h 2 v 1 h 1 v 1 h 1.001 v 1.001 h 1 v 1 h 1 v 1 h 1 v 1 h 1.001 v 1.001 h 1 v 1 h 1 v 1 h 1 v 2 h 1.001 v 1.001 h 1 v 1 h 1 v 1 h 1 v 1 h 1 v 1.001 h 1.001 v 1 h 1 v 1 h 1 v 1 h 1 v 1.001 h 1.001 v 2 h 1 v 1 h 1 v 1 h 1 v 1.001 h 1.001 v 1 h 1 v 1 h 1 v 1 h 1 v 2.001 h 1 v 1 h 1.001 v 1 h 1 v 1 h 1 v 1.001 h 1 v 1 h 1.001 v 2 h 1 v 1.001 h 1 v 1 h 1 v 1 h 1.001 v 1 h 1 v 1.001 h 1 v 1 h 1 v 1 h 1 v 1 h 1.001 v 1 h 1 v 1.001 h 1 v 1 h 1 v 1 h 1.001 v 1 h 1 v 1.001 h 1 v 1 h 1 v 1 h 1.001 v 1 h 1 v 1.001 h 1 v 1 h 1 v 1 h 1 v 1 h 2.001 v 1 h 1 v 1.001 h 1 v 1 h 2.001 v 1 h 1 v 1 h 1 v 1.001 h 2.001 v 1 h 2 v 1 h 1 v 1 h 2.001 v 1.001 h 2 v 1 h 2.001 v 1 h 2 v 1 h 2.001 v 1 h 2 v 1.001 h 3.001 v 1 h 2 v 1 h 3.001 v 1 h 2 v 1.001 h 3.001 v 1 h 3.001 v 1 h 3.001 v 1 h 3 v 1.001 h 3.001 v 1 h 3.001 v 1 h 4.001 v 1 h 3 v 1 h 4.001 v 1.001 h 4.001 v 1 h 4.001 v 1 h 4.001 v 1 h 5.001 v 1.001 h 5.001 v 1 h 4.001 v 1 h 5.001 v 1 h 5.001 v 1.001 h 6.002 v 1 h 5.001 v 1 h 6.001 v 1 h 5.001 v 1 h 6.002 v 1.001 h 5.001 v 1 h 6.001 v 1 h 9.002 v 3.001 h 1.001 v 2 h 1 v 3.001 h 1 v 2 h 1 v 3.001 h 1.001 v 3.001 h 1 v 2 h 1 v 3.001 h 1 v 2 h 1 v 3.001 h 1.001 v 2.001 h 1 v 2 h 1 v 3.001 h 1 v 2 h 1.001 v 2.001 h 1 v 3 h 1 v 2.001 h 1 v 2 h 1.001 v 3.001 h 1 v 2 h 1 v 2.001 h 1 v 3.001 h 1 v 2 h 1.001 v 3.001 h 1 v 2 h 1 v 3.001 h 1 v 2 h 1.001 v 3.001 h 1 v 3.001 h 1 v 2 h 1 v 3.001 h 1.001 v 4.001 h 1 v 3 h 1 v 4.001 h 1 v 3.001 h 1 v 2 h -1 v -1 h -3 v -1 h -3.001 v -1 h -4.001 v -1 h -5.001 v -1.001 h -6.002 v -1 h -10.002 v 1 h -1 v 2.001 h -1 v 1 h -1.001 v 1 h -1 v 2.001 h -1 v 1 h -1 v 1 h -1.001 v 1 h -1 v 1.001 h -1 v 1 h -1 v 2 h -1 v 1.001 h -1.001 v 1 h -1 v 1 h -1 v 1 h -1 v 1 h -1.001 v 1.001 h -1 v 1 h -1 v 1 h -1 v 1 h -1 v 1.001 h -1.001 v 1 h -1 v 1 h -1 v 1 h -1 v 1.001 h -1.001 v 1 h -1 v 1 h -2 v 1 h -1.001 v 1 h -1 v 1.001 h -1 v 1 h -1 v 1 h -1 v 1 h -1.001 v 1.001 h -1 v 1 h -1 v 1 h -1 v 1 h -1.001 v 1 h -1 v 1.001 h -1 v 1 h -2.001 v 1 h -1 v 1 h -1 v 1.001 h 32.007 v -1.001 h 1.001 v -1 h 1 v -1 h 1 v -1 h 1 v -1.001 h 2.001 v -1 h 1 v -1 h 1 v -1 h 1 v -1 h 1.001 v -1.001 h 1 v -1 h 1 v -1 h 1 v -1 h 1.001 v -1.001 h 2 v -1 h 1 v -1 h 1 v -1 h 1.001 v -1 h 1 v -1.001 h 1 v -1 h 1 v -1 h 1.001 v -1 h 2 v 1 h -1 v 2 h -1 v 1.001 h -1.001 v 2 h -1 v 1 h -1 v 1 h -1 v 2.001 h -1.001 v 1 h -1 v 1 h -1 v 1.001 h -1 v 2 h -1 v 1 h -1.001 v 1 h -1 v 1.001 h -1 v 1 h -1 v 1 h -1.001 v 2.001 h 53.013 v -1.001 h 4 v -1 h 3.001 v -1 h 2.001 v -1 h 3 v -1.001 h 2.001 v -1 h 2 v -1 h 2.001 v -1 h 1 v -1 h 2 v -1.001 h 1.001 v -1 h 1 v -1 h 1 v -1 h 1 v -1.001 h 1.001 v -1 h 1 v -1 h 1 v -1 h 1 v -2.001 h 1 v -1 h 1.001 v -8.002 h -1.001 v -4.001 h -1 v -5.001 h -1 v -5.001 h -1 v -6.001 h -1 v -5.002 h -1.001 v -5.001 h -1 v -5.001 h -1 v -6.001 h -1 v -5.001 h -1.001 v -5.001 h -1 v -6.002 h -1 v -5.001 h -1 v -5.001 h -1.001 v -5.001 h -1 v -6.002 h -1 v -5.001 h -1 v -5.001 h -1 v -6.001 h -1.001 v -5.002 h -1 v -5.001 h -1 v -5.001 h -1 v -5.001 h -1.001 v -6.001 h -1 v -5.001 h -1 v -5.002 h -1 v -5.001 h -1.001 v -5.001 h -1 v -5.001 h -1 v -5.001 h -1 v -5.001 h -1 v -5.002 h -1.001 v -2 h -1 v -1 h -12.003 v -1 h -18.004 v -1.001 h -11.002 v -1 h -9.002 v -1 h -8.002 v -1 h -6.002 v -1.001 h -5.001 v -1 h -6.001 v -2 h -1 v -2.001 h -1.001 v -2 h -1 v -2.001 h -1 v -3 h -1 v -2.001 h -1 v -2 h -1.001 v -3.001 h -1 v -3.001 h -1 v -2 h -1 v -3.001 h -1.001 v -3 h -1 v -2.001 h -1 v -3.001 h -1 v -3 h -1.001 v -2.001 h -1 v -3 h -1 v -2.001 h -1 v -3.001 h -1 v -2 h -1.001 v -2.001 h -1 v -2 h -1 v -2 h -1 v -2.001 h -1.001 v -2 h -1 v -2.001 h -1 v -2 h -1 v -2.001 h -1.001 v -2 h -1 v -2.001 h -1 v -2 h -1 v -2.001 h -1 v -2 h -1.001 v -2 h -1 v -2.001 h -1 v -1 h -1 v -2.001 h -1.001 v -2 h -1 v -2.001 h -1 v -2 h -1 v -2 h -1.001 v -2.001 h -1 v -2 h -1 v -1.001 h -1 v -2 h -1 v -2.001 h -1.001 v -2 h -1 v -2 h -1 v -2.001 h -1 v -1 h -1.001 v -1 h 6.002 v 1 h 71.016 v -1 h 11.003 v -1.001 h 7.001 v -1 h 6.002 v -1 h 5.001 v -1 h 4.001 v -1.001 h 4.001 v -1 h 4.001 v -1 h 3 v -1 h 3.001 v -1 h 2 v -1.001 h 3.001 v -1 h 3.001 v -1 h 2 v -1 h 2.001 v -1.001 h 2 v -1 h 3.001 v -1 h 1 v -1 h 2 v -1.001 h 2.001 v -1 h 2 v -1 h 1.001 v -1 h 2 v -1 h 1 v -1.001 h 2.001 v -1 h 1 v -1 h 1 v -1 h 2.001 v -1.001 h 1 v -1 h 1 v -1 h 1 v -1 h 2.001 v -1 h 1 v -1.001 h 1 v -1 h 1.001 v -1 h 1 v -1 h 1 v -1.001 h 1 v -1 h 1 v -1 h 1.001 v -1 h 1 v -1.001 h 1 v -1 h 1 v -1 h 1.001 v -1 h 1 v -2.001 h 1 v -1 h 1 v -1 h 1.001 v -2.001 h 1 v -1 h 1 v -1 h 1 v -2.001 h 1 v -2 h 1.001 v -1 h 1 v -2.001 h 1 v -2 h 1 v -3.001 h 1.001 v -2 h 1 v -3.001 h 1 v -3.001 h 1 v -3 h 1 v -5.002 h 1.001 v -23.005 h -1.001 v -4.001 h -1 v -3 h -1 v -3.001 h -1 v -3.001 h -1 v -2 h -1.001 v -2.001 h -1 v -2 h -1 v -1 h -1 v -2.001 h -1.001 v -1 h -1 v -1 h -1 v -2.001 h -1 v -1 h -1 v -1 h -1.001 v -1 h -1 v -1.001 h -1 v -1 h -1 v -1 h -1.001 v -1 h -1 v -1.001 h -1 v -1 h -1 v -1 h -1.001 v -1 h -1 v -1.001 h -1 v -1 h -1 v -1 h -1 v -1 h -2.001 v -1 h -1 v -1.001 h -1 v -1 h -1.001 v -1 h -2 v -1 h -1 v -1.001 h -2.001 v -1 h -1 v -1 h -2 v -1 h -1.001 v -1 h -2 v -1.001 h -1 v -1 h -2.001 v -1 h -2 v -1 h -1.001 v -1.001 h -2 v -1 h -2 v -1 h -1.001 v -1 h -2 v -1.001 h -2.001 v -1 h -2 v -1 h -2.001 v -1 h -1 v -1 h -2 v -1.001 h -2.001 v -1 h -2 v -1 h -2.001 v -1 h -1 v -1.001 h -2 v -1 h -2.001 v -1 h -2 v -1 h -1 v -1.001 h -2.001 v -1 h -2 v -1 h -1.001 v -1 h -2 v -1 h -1 v -1.001 h -2.001 v -1 h -1 v -1 h -2 v -1 h -1.001 v -1.001 h -2 v -1 h -1 v -1 h -1.001 v -1 h -2 v -1.001 h -1 v -1 h -1 v -1 h -1.001 v -1 h -1 v -1 h -1 v -1.001 h -2.001 v -2 h -1 v -1 h -1 v -1.001 h -1 v -1 h -1.001 v -1 h -1 v -2.001 h -1 v -1 h -1 v -2 h -1 v -1 h -1.001 v -2.001 h -1 v -3.001 h -1 v -3 h -1 v -22.005 h 1 v -4.001 h 1 v -5.001 h 1 v 1 h 1.001 v 1 h 1 v 1 h 1 v 1.001 h 1 v 1 h 1 v 1 h 2.001 v 1 h 1 v 1 h 2.001 v 1.001 h 1 v 1 h 2 v 1 h 3.001 v 1 h 3.001 v 1.001 h 3 v 1 h 5.002 v 1 h 20.004 v -1 h 6.001 v -1 h 4.001 v -1.001 h 3.001 v -1 h 3.001 v -1 h 3 v -1 h 3.001 v -1.001 h 2.001 v -1 h 2 v -1 h 2.001 v -1 h 2 v -1 h 2 v -1.001 h 1.001 v -1 h 2 v -1 h 1 v -1 h 2.001 v -1.001 h 1 v -1 h 2.001 v -1 h 1 v -1 h 1 v -1.001 h 1 v -1 h 2.001 v -1 h 1 v -1 h 1 v -1 h 1 v -1.001 h 1.001 v -1 h 1 v -1 h 1 v -1 h 1 v -1.001 h 1.001 v -1 h 1 v -1 h 1 v -1 h 1 v -1.001 h 1 v -1 h 1.001 v -1 h 1 v -1 h 1 v -2.001 h 1 v -1 h 1.001 v -1 h 1 v -1 h 1 v -2.001 h 1 v -1 h 1 v -1 h 1.001 v -2.001 h 1 v -1 h 1 v -2 h 1 v -1.001 h 1.001 v -2 h 1 v -2.001 h 1 v -2 h 1 v -2 h 1.001 v -3.001 h 1 v -2.001 h 1 v -3 h 1 v -3.001 h 1 v -4.001 h 1 v -5.001 h 1 v -31.007 h -1 v 1 h -1 v 2 h -1 v 2.001 h -1 v 1 h -1 v 2.001 h -1 v 1 h -1.001 v 1 h -1 v 1 h -1 v 1.001 h -1 v 1 h -1.001 v 1 h -1 v 1 h -1 v 1 h -2.001 v 1.001 h -1 v 1 h -2 v 1 h -2.001 v 1 h -2 v 1.001 h -2.001 v 1 h -3 v 1 h -4.001 v 1 h -34.008 v -1 h -9.002 v -1 h -32.007 v 1 h -5.002 v 1 h -3 v 1.001 h -3.001 v 1 h -3.001 v 1 h -2 v 1 h -3.001 v 1 h -1 v 1.001 h -2 v 1 h -2.001 v 1 h -1 v 1 h -1 v 1.001 h -2.001 v 1 h -1 v 1 h -1 v 1 h -1.001 v 1.001 h -1 v 1 h -1 v 1 h -1 v 1 h -1 v 2.001 h -1.001 v 1 h -1 v 2 h -1 v 2.001 h -1 v 3.001 h -1.001 v 4 h -1 v 12.003 h 1 v 1 h -1 v 2.001 h -1 v 1 h -1 v 2.001 h -1 v 1 h -1.001 v 1 h -1 v 1 h -1 v 1 h -1 v 1.001 h -1.001 v 1 h -1 v 1 h -1 v 2.001 h -1 v 1 h -1.001 v 1 h -1 v 2.001 h -1 v 1 h -1 v 2 h -1 v 1 h -1.001 v 2.001 h -1 v 3.001 h -1 v 2 h -1 v 3.001 h -1.001 v 4.001 h -1 v 26.006 h 1 v 3 h 1.001 v 3.001 h 1 v 3.001 h 1 v 2 h 1 v 2.001 h 1.001 v 2 h 1 v 2.001 h 1 v 1 h 1 v 2 h 1 v 1 h 1.001 v 1.001 h 1 v 2 h 1 v 1 h 1 v 1.001 h 1.001 v 1 h 1 v 1 h 1 v 2.001 h 1 v 1 h 1.001 v 1 h 1 v 1 h 1 v 1 h 1 v 1.001 h 1 v 1 h 1.001 v 1 h 1 v 1 h 2 v 1.001 h 1.001 v 1 h 1 v 1 h 1 v 1 h 1 v 1.001 h 1 v 1 h 2.001 v 1 h 1 v 1 h 1 v 1 h 1.001 v 1.001 h 2 v 1 h 1 v 1 h 1.001 v 1 h 2 v 1.001 h 1 v 1 h 2.001 v 1 h 1 v 1 h 2 v 1.001 h 1.001 v 1 h 2 v 1 h 1 v 1 h 2.001 v 1 h 1 v 1.001 h 2 v 1 h 2.001 v 1 h 1 v 1 h 2.001 v 1.001 h 1 v 1 h 2 v 1 h 2.001 v 1 h 1 v 1 h 2 v 1.001 h 2.001 v 1 h 1 v 1 h 2.001 v 1 h 2 v 1.001 h 2.001 v 1 h 1 v 1 h 2 v 1 h 2.001 v 1.001 h 1 v 1 h 2 v 1 h 2.001 v 1 h 1 v 1 h 2 v 1.001 h 2.001 v 1 h 1 v 1 h 2.001 v 1 h 1 v 1.001 h 2 v 1 h 1.001 v 1 h 1 v 1 h 2 v 1.001 h 1 v 1 h 1.001 v 1 h 1 v 1 h 2 v 1 h 1.001 v 2.001 h 1 v 1 h 1 v 1 h 1 v 2.001 h 1.001 v 1 h 1 v 2.001 h 1 v 2 h 1 v 3.001 h 1 v 4.001 h 1.001 v 6.001 h 1 v 1 h -1 v 7.002 h -1.001 v 4.001 h -1 v 3 h -1 v 2.001 h -1 v 2 h -1 v 2.001 h -1.001 v 2 h -1 v 1 h -1 v 2.001 h -1 v 1 h -1.001 v 1 h -1 v 1.001 h -1 v 2 h -1 v 1 h -1.001 v 1.001 h -1 v 1 h -2 v 1 h -1 v 1 h -1.001 v 1 h -1 v 1.001 h -2 v 1 h -1.001 v 1 h -2 v 1 h -2.001 v 1.001 h -1 v 1 h -2 v 1 h -2.001 v 1 h -2 v 1.001 h -2.001 v 1 h -2 v 1 h -3.001 v 1 h -2 v 1 h -3.001 v 1.001 h -3.001 v 1 h -4 v 1 h -4.001 v 1 h -4.001 v 1.001 h -5.001 v 1 h -6.002 v 1 h -9.002 v 1 h -43.01 v -1 h -9.002 v -1 h -7.001 v -1 h -6.002 v -1.001 h -5.001 v -1 h -5.001 v -1 h -4.001 v -1 h -4.001 v -1.001 h -4.001 v -1 h -3.001 v -1 h -3 v -1 h -3.001 v -1 h -3.001 v -1.001 h -2 v -1 h -3.001 v -1 h -2 v -1 h -3.001 v -1.001 h -2 v -1 h -3.001 v -1 h -2.001 v -1 h -3 v -1.001 h -2.001 v -1 h -3 v -1 h -3.001 v -1 h -3.001 v -1 h -4.001 v -1.001 h -5.001 v -1 h -6.001 v -1 h -7.002 v -1 h -7.001 v -1.001 h -7.002 v -1 h -7.002 v -1 h -7.001 v -1 h -7.002 v -1.001 h -6.001 v -1 h -7.002 v -1 h -6.001 v -1 h -6.002 v -1 h -6.001 v -1.001 h -5.001 v -1 h -5.001 v -1 h -4.001 v -1 h -5.001 v -1.001 h -4.001 v -1 h -4.001 v -1 h -3.001 v -1 h -4.001 v -1.001 h -4.001 v -1 h -3 v -1 h -3.001 v -1 h -3.001 v -1 h -4.001 v -1.001 h -3 v -1 h -3.001 v -1 h -3.001 v -1 h -3 v -1.001 h -3.001 v -1 h -3.001 v -1 h -2 v -1 h -3.001 v -1 h -3.001 v -1.001 h -3 v -1 h -3.001 v -1 h -3.001 v -1 h -3 v -1.001 h -2.001 v -1 h -3.001 v -1 h -3 v -1 h -3.001 v -1.001 h -3.001 v -1 h -3 v -1 h -2.001 v -1 h -3 v -1 h -3.001 v -1.001 h -3.001 v -1 h -3 v -1 h -3.001 v -1 h -3.001 v -1.001 h 1 v -2 h 1.001 v -1 h 1 v -1.001 h 1 v -1 h 1 v -1 h 1.001 v -1 h 1 v -1 h 1 v -1.001 h 1 v -1 h 1 v -1 h 1.001 v -1 h 1 v -2.001 h 1 v -1 h 1 v -1 h 1.001 v -1.001 h 1 v -1 h 1 v -1 h 1 v -2 h 1 v -1.001 h 1.001 v -1 h 1 v -1 h 1 v -1 h 1 v -1.001 h 1.001 v -2 h 1 v -1 h 1 v -1.001 h 1 v -1 h 1.001 v -1 h 1 v -2 h 1 v -1.001 h 1 v -1 h 1 v -1 h 1.001 v -2.001 h 1 v -1 h 1 v -1 h 1 v -1 h 1.001 v -1 h 1 v -2.001 h 1 v -1 h 1 v -1 h 1.001 v -2.001 h 1 v -1 h 1 v -1 h 1 v -1.001 h 1 v -2 h 1.001 v -1 h 1 v -1 h 1 v -2.001 h 1 v -1 h 1.001 v -1 h 1 v -2.001 h 1 v -1 h 1 v -2.001 h 1.001 v -2 h 1 v -1 h 1 v -2.001 h 1 v -1 h 1 v -2 h 1.001 v -2.001 h 1 v -2 h 1 v -3.001 h 1 v -2 h 1.001 v -3.001 h 1 v -3.001 h 1 v -3.001 h 1 v -3 h 1.001 v -4.001 h 1 v -5.001 h 1 v -6.002 h 1 v -9.002 h 1 v -29.006 h -1 v -11.003 h -1 v -9.002 h -1 v -7.002 h -1 v -6.001 h -1.001 v -6.001 h -1 v -5.001 h -1 v -5.002 h -1 v -5.001 h -1.001 v -5.001 h -1 v -5.001 h -1 v -5.001 h -1 v -5.001 h -1.001 v -5.002 h -1 v -5.001 h -1 v -5.001 h -1 v -5.001 h -1 v -6.001 h -1.001 v -6.002 h -1 v -7.001 h 1 v -1.001 h 2.001 v -1 h 2 v -1 h 2.001 v -1 h 2 v -1 h 2.001 v -1.001 h 2 v -1 h 3.001 v -1 h 2 v -1 h 2.001 v -1.001 h 3 v -1 h 2.001 v -1 h 3 v -1 h 2.001 v -1.001 h 2 v -1 h 2.001 v -1 h 2 v -1 h 2.001 v -1 h 2 v -1.001 h 3.001 v -1 h 2 v -1 h 2.001 v -1 h 2 v -1.001 h 2.001 v -1 h 2 v -1 h 2.001 v -1 h 2 v -1.001 h 2.001 v -1 h 3 v -1 h 2.001 v -1 h 2 v -1 h 2.001 v -1.001 h 2 v -1 h 2.001 v -1 h 2 v -1 h 3.001 v -1.001 h 2 v -1 h 2.001 v -1 h 2 v -1 h 2.001 v -1 h 2 v -1.001 h 2 v -1 h 3.001 v -1 h 2.001 v -1 h 2 v -1.001 h 2.001 v -1 h 2 v -1 h 2 v -1 h 2.001 v -1.001 h 2 v -1 h 2.001 v -1 h 3.001 v -1 h 2 v -1 h 2 v -1.001 h 2.001 v -1 h 2 v -1 h 2.001 v -1 h 2 v -1.001 h 2.001 v -1 h 2 v -1 h 3.001 v -1 h 2 v -1.001 h 2.001 v -1 h 2 v -1 h 2.001 v -1 h 2 v -1 h 2.001 v -1.001 h 2 v -1 h 2.001 v -1 h 2 v -1 h 2 v -1.001 h 2.001 v -1 h 3.001 v -1 h 2 v -1 h 2.001 v -1.001 h 2 v -1 h 2 v -1 h 2.001 v -1 h 2 v -1 h 2.001 v -1.001 h 2 v -1 h 2.001 v -1 h 2 v -1 h 2.001 v -1.001 h 2 v -1 h 2.001 v -1 h 2 v -1 h 2.001 v -1.001 h 2 v -1 h 2 v -1 h 3.001 v -1 h 2.001 v -1 h 2 v -1.001 h 2.001 v -1 h 1 v -1 h 2 v -1 h 2.001 v -1.001 h 2 v -1 h 2.001 v -1 h 2 v -1 h 2.001 v -1 h 2 v -1.001 h 2 v -1 h 2.001 v -1 h 2 v -1 h 2.001 v -1.001 h 2 v -1 h 2.001 v -1 h 1 v -1 h 2 v -1.001 h 2.001 v -1 h 2 v -1 h 2.001 v -1 h 1 v -1 h 2 v -1.001 h 2.001 v -1 h 2 v -1 h 1.001 v -1 h 2 v -1.001 h 2.001 v -1 h 2 v -1 h 1 v -1 h 2.001 v -1.001 h 2 v -1 h 1 v -1 h 2.001 v -1 h 1 v -1 h 2.001 v -1.001 h 2 v -1 h 1 v -1 h 2.001 v -1 h 1 v -1.001 h 2 v -1 h 1.001 v -1 h 2 v -1 h 1 v -1.001 h 2.001 v -1 h 1 v -1 h 1 v -1 h 2.001 v -1 h 1 v -1.001 h 2 v -1 h 1.001 v -1 h 1 v -1 h 2 v -1.001 h 1 v -1 h 1.001 v -1 h 2 v -1 h 1 v -1.001 h 1.001 v -1 h 1 v -1 h 2 v -1 h 1.001 v -1 h 1 v -1.001 h 1 v -1 h 2 v -1 h 1.001 v -1 h 1 v -1.001 h 1 v -1 h 1 v -1 h 1.001 v -1.0003 h 1 v -1.0002 h 2 v -1.0002 h 1.001 v -1.0003 h 1 v -1.0002 h 1 v -1.0002 h 1 v -1.0003 h 1 v -1.0002 h 1.001 v -1.0002 h 1 v -1.0002 h 1 v -1.0003 h 1 v -1.0002 h 1.001 v -1.0002 h 1 v -1.0003 h 1 v -1.0002 h 1 v -1.0002 h 1.001 v -1.0002 h 1 v -1.0003 h 1 v -1.0002 h 1 v -1.0002 h 1 v -1.0003 h 1.001 v -2.0004 h 1 v -1.0003 h 1 v -1.0002 h 1 v -1.0002 h 1.001 v -1.0002 h 1 v -1.0003 h 1 v -2.0004 h 1 v -1.0003 h 1.001 v -1.0002 h 1 v -1.0002 h 1 v -2.0005 h 1 v -1.0002 h 1 v -1.0002 h 1.001 v -2.0005 h 1 v -1.0002 h 1 v -2.0005 h 1 v -1.0002 h 1.001 v -2.0005 h 1 v -1.0002 h 1 v -2.0005 h 1 v -1.0002 h 1 v -2.0005 h 1.001 v -2.0004 h 1 v -1.0002 h 1 v -2.0005 h 1 v -2.0005 h 1.001 v -2.0004 h 1 v -2.0005 h 1 v -2.0004 h 1 v -2.0005 h 1.001 v -2.0005 h 1 v -2.0004 h 1 v -2.0005 h 1 v -3.0007 h 1 v -2.0004 h 1.001 v -3.0007 h 1 v -2.0005 h 1 V 9.5020199 h 1 v -3.0006 h 1.001 v -2.0005 h 1 V 0.49999989 h -3.001 M 900.7064,117.52662 v 1 h -2 v 1.001 h -2.001 v 1 h -2 v 1 h -2.001 v 1 h -2 v 1.001 h -2.001 v 1 h -2 v 1 h -1 v 1 h -2.001 v 1.001 h -2 v 1 h -2.001 v 1 h -2 v 1 h -2.001 v 1 h -2 v 1.001 h -2 v 1 h -2.001 v 1 h -2 v 1 h -2.001 v 1.001 h -2 v 1 h -2.001 v 1 h -2 v 1 h -2.001 v 1.001 h -2 v 1 h -2.001 v 1 h -1 v 1 h -2 v 1 h -2.001 v 1.001 h -2 v 1 h -2.001 v 1 h -2 v 1 h -2.001 v 1.001 h -2 v 1 h -2 v 1 h -2.001 v 1 h -2 v 1.001 h -2.001 v 1 h -2 v 1 h -2.001 v 1 h -2 v 1 h -2.001 v 1.001 h -2 v 1 h -2.001 v 1 h -2 v 1 h -2.001 v 1.001 h -2 v 1 h -2 v 1 h -2.001 v 1 h -2 v 1 h -2.001 v 1.001 h -1 v 1 h -2.001 v 1 h -2 v 1 h -2 v 1.001 h -2.001 v 1 h -2 v 1 h -2.001 v 1 h -2 v 1.001 h -2.001 v 1 h -2 v 1 h -2.001 v 1 h -2 v 1 h -2.001 v 1.001 h -2 v 1 h -2 v 1 h -2.001 v 1 h -2 v 1.001 h -2.001 v 1 h -2 v 1 h -2.001 v 1 h -2 v 1.001 h -2.001 v 1 h -2 v 1 h -2.001 v 1 h -2 v 1 h -2.001 v 1.001 h -2 v 1 h -2 v 1 h -2.001 v 1 h -2 v 1.001 h -2.001 v 1 h -2 v 1 h -2.001 v 1 h -2 v 1.001 h -2.001 v 1 h -2 v 1 h -2.001 v 1 h -3 v 1 h -2.001 v 1.001 h -2 v 1 h -2.001 v 1 h -2 v 1 h -2.001 v 1.001 h -2 v 1 h -2.001 v 1 h -2 v 1 h -2 v 1.001 h -2.001 v 1 h -2 v 1 h -2.001 v 1 h -2 v 1 h -2.001 v 1.001 h -3 v 1 h -2.001 v 1 h -2 v 1 h -2.001 v 1.001 h -2 v 1 h -2.001 v 1 h -2 v 1 h -2.001 v 1 h -2 v 1.001 h -2.001 v 1 h -2 v 1 h -3.001 v 1 h -2 v 1.001 h -2.001 v 1 h -2 v 1 h -2.001 v 1 h -2 v 1.001 h -2 v 1 h -2.001 v 1 h -3.001 v 1 h -2 v 1 h -2.001 v 1.001 h -2 v 1 h -2 v 1 h -2.001 v 1 h -2 v 1.001 h -3.001 v 1 h -2 v 1 h -2.001 v 1 h -2 v 1.001 h -2.001 v 1 h -2 v 1 h -3.001 v 1 h -2 v 1 h -2.001 v 1.001 h -2 v 1 h -2.001 v 1 h -3.001 v 1 h -2 v 1.001 h -2 v 1 h -2.001 v 1 h -2 v 1 h -3.001 v 1.001 h -2.001 v 1 h -2 v 1 h -2 v 1 h -2.001 v 1 h -3.001 v 1.001 h -1 v 6.001 h 1 v 5.001 h 1.001 v 5.001 h 1 v 4.001 h 1 v 5.001 h 1 v 4.001 h 1.001 v 5.001 h 1 v 4.001 h 1 v 4.001 h 1 v 2.001 h 3.001 v -1 h 3.001 v -1.001 h 3 v -1 h 3.001 v -1 h 3.001 v -1 h 3 v -1.001 h 4.001 v -1 h 3.001 v -1 h 3.001 v -1 h 3 v -1.001 h 3.001 v -1 h 3.001 v -1 h 3 v -1 h 3.001 v -1 h 4.001 v -1.001 h 3.001 v -1 h 3 v -1 h 3.001 v -1 h 3.001 v -1.001 h 3 v -1 h 3.001 v -1 h 3.001 v -1 h 3.001 v -1.001 h 3 v -1 h 3.001 v -1 h 3.001 v -1 h 3 v -1 h 3.001 v -1.001 h 3.001 v -1 h 3 v -1 h 2.001 v -1 h 3.001 v -1.001 h 3 v -1 h 3.001 v -1 h 2 v -1 h 3.001 v -1 h 3.001 v -1.001 h 2 v -1 h 3.001 v -1 h 2 v -1 h 3.001 v -1.001 h 2 v -1 h 3.001 v -1 h 3.001 v -1 h 2 v -1.001 h 2.001 v -1 h 3 v -1 h 2.001 v -1 h 3.001 v -1 h 2 v -1.001 h 2.001 v -1 h 2 v -1 h 3.001 v -1 h 2 v -1.001 h 2.001 v -1 h 2 v -1 h 3.001 v -1 h 2 v -1.001 h 2.001 v -1 h 2 v -1 h 2.001 v -1 h 2 v -1 h 2.001 v -1.001 h 2 v -1 h 2 v -1 h 2.001 v -1 h 2 v -1.001 h 2.001 v -1 h 2 v -1 h 2.001 v -1 h 2 v -1.001 h 2.001 v -1 h 2 v -1 h 1 v -1 h 2.001 v -1 h 2 v -1.001 h 2.001 v -1 h 1 v -1 h 2 v -1 h 2.001 v -1.001 h 1 v -1 h 2.001 v -1 h 1 v -1 h 2 v -1.001 h 2.001 v -1 h 1 v -1 h 2 v -1 h 1.001 v -1 h 2 v -1.001 h 1 v -1 h 1.001 v -1 h 2 v -1 h 1 v -1.001 h 2.001 v -1 h 1 v -1 h 1 v -1 h 2.001 v -1 h 1 v -1.001 h 1 v -1 h 1 v -1 h 2.001 v -1 h 1 v -1.001 h 1 v -1 h 1 v -1 h 2.001 v -1 h 1 v -1.001 h 1 v -1 h 1.001 v -1 h 1 v -1 h 1 v -1 h 1 v -1.001 h 1 v -1 h 1.001 v -1 h 1 v -1 h 2 v -1.001 h 1.001 v -1 h 1 v -1 h 1 v -1 h 1 v -1.001 h 1.001 v -1 h 1 v -2 h 1 v -1 h 1 v -1.001 h 1 v -1 h 1.001 v -1 h 1 v -1 h 1 v -1.001 h 1 v -1 h 1.001 v -1 h 1 v -2.001 h 1 v -1 h 1 v -1 h 1.001 v -1 h 1 v -2.001 h 1 v -1 h 1 v -1 h 1 v -2.001 h 1.001 v -1 h 1 v -1 h 1 v -2.001 h 1 v -1 h 1.001 v -2 h 1 v -1 h 1 v -2.001 h 1 v -2 h 1.001 v -1.001 h 1 v -2 h 1 v -2 h 1 v -2.001 h 1 v -1 h 1.001 v -2.001 h 1 v -2 h 1 v -2.001 h 1 v -2 h 1.001 v -3.001 h 1 v -2 h 1 v -2.001 h 1 v -2 h 1.001 v -3.001 h 1 v -2 h 1 v -3.001 h 1 v -2 h 1 v -3.001 h 1.001 v -3.001 h -2.001 m -39.009,115.027 v 1 h -2 v 1 h -2.001 v 1 h -2 v 1.001 h -2.001 v 1 h -2 v 1 h -1 v 1 h -2.001 v 1 h -2 v 1.001 h -2.001 v 1 h -2 v 1 h -1 v 1 h -2.001 v 1.001 h -2 v 1 h -2.001 v 1 h -2 v 1 h -2.001 v 1.001 h -2 v 1 h -2.001 v 1 h -2 v 1 h -2 v 1 h -2.001 v 1.001 h -2 v 1 h -2.001 v 1 h -2 v 1 h -2.001 v 1.001 h -2 v 1 h -2.001 v 1 h -2 v 1 h -2.001 v 1.001 h -2 v 1 h -2.001 v 1 h -2 v 1 h -2 v 1 h -2.001 v 1.001 h -3.001 v 1 h -2 v 1 h -2.001 v 1 h -2 v 1.001 h -2 v 1 h -2.001 v 1 h -2 v 1 h -3.001 v 1.001 h -2 v 1 h -2.001 v 1 h -2 v 1 h -2.001 v 1 h -3.001 v 1.001 h -2 v 1 h -2 v 1 h -3.001 v 1 h -2.001 v 1.001 h -2 v 1 h -3.001 v 1 h -2 v 1 h -3.001 v 1 h -2 v 1.001 h -2.001 v 1 h -3.001 v 1 h -2 v 1 h -3.001 v 1.001 h -2 v 1 h -3.001 v 1 h -2 v 1 h -3.001 v 1.001 h -3.001 v 1 h -2 v 1 h -3.001 v 1 h -3.001 v 1 h -2 v 1.001 h -3.001 v 1 h -3 v 1 h -2.001 v 1 h -3 v 1.001 h -3.001 v 1 h -3.001 v 1 h -3.001 v 1 h -2 v 1.001 h -3.001 v 1 h -3 v 1 h -3.001 v 1 h -3.001 v 1 h -3 v 1.001 h -3.001 v 1 h -3.001 v 1 h -3.001 v 1 h -3 v 1.001 h -3.001 v 1 h -4.001 v 1 h -3.001 v 1 h -3 v 1.001 h -3.001 v 1 h -3.001 v 1 h -3 v 1 h -3.001 v 1 h -3.001 v 1.001 h -3 v 1 h -3.001 v 1 h -3.001 v 1 h -4.001 v 1.001 h -3 v 1 h -4.001 v 1 h -4.001 v 1 h -2.001 v 1.001 h -1 v 12.002 h 1 v 18.004 h 1.001 v 17.004 h 1 v 5.001 h 6.001 v -1 h 3.001 v -1 h 4.001 v -1 h 3.001 v -1 h 3 v -1.001 h 3.001 v -1 h 4.001 v -1 h 4.001 v -1 h 3 v -1.001 h 4.001 v -1 h 3.001 v -1 h 4.001 v -1 h 3.001 v -1.001 h 4.001 v -1 h 3 v -1 h 4.001 v -1 h 3.001 v -1 h 4.001 v -1.001 h 3 v -1 h 3.001 v -1 h 3.001 v -1 h 4.001 v -1.001 h 3 v -1 h 3.001 v -1 h 3.001 v -1 h 4.001 v -1.001 h 3 v -1 h 3.001 v -1 h 3.001 v -1 h 3 v -1 h 3.001 v -1.001 h 3.001 v -1 h 2 v -1 h 3.001 v -1 h 3.001 v -1.001 h 3 v -1 h 2.001 v -1 h 3.001 v -1 h 2 v -1.001 h 3.001 v -1 h 2 v -1 h 3.001 v -1 h 2 v -1 h 3.001 v -1.001 h 2 v -1 h 3.001 v -1 h 2.001 v -1 h 2 v -1.001 h 3.001 v -1 h 2 v -1 h 2.001 v -1 h 3 v -1 h 2.001 v -1.001 h 2 v -1 h 2.001 v -1 h 2 v -1 h 1 v -1.001 h 2.001 v -1 h 2 v -1 h 2.001 v -1 h 1 v -1.001 h 2 v -1 h 1.001 v -1 h 2 v -1 h 2.001 v -1 h 1 v -1.001 h 2 v -1 h 1.001 v -1 h 1 v -1 h 2 v -1.001 h 1 v -1 h 1.001 v -1 h 2 v -1 h 1 v -1.001 h 1.001 v -1 h 2 v -1 h 1 v -1 h 1.001 v -1 h 1 v -1.001 h 1 v -1 h 1 v -1 h 1 v -1 h 2.001 v -1.001 h 1 v -1 h 1 v -1 h 1.001 v -1 h 1 v -1.001 h 1 v -1 h 1 v -1 h 1.001 v -1 h 1 v -1 h 1 v -1.001 h 1 v -1 h 1 v -1 h 1.001 v -1 h 1 v -1.001 h 1 v -2 h 1 v -1 h 1.001 v -1.001 h 1 v -1 h 1 v -1 h 1 v -2 h 1.001 v -1.001 h 1 v -1 h 1 v -1 h 1 v -2.001 h 1 v -1 h 1.001 v -2 h 1 v -1 h 1 v -1.001 h 1 v -2 h 1.001 v -2.001 h 1 v -1 h 1 v -2 h 1 v -1.001 h 1 v -2 h 1.001 v -2 h 1 v -2.001 h 1 v -2 h 1 v -2.001 h 1.001 v -2 h 1 v -2.001 h 1 v -2 h 1 v -2.001 h 1.001 v -2 h 1 v -2.001 h 1 v -3 h 1 v -2.001 h 1 v -2 h 1.001 v -3.001 h 1 v -2 h -3.001 m -630.144,28.006 h 1 v 1 h -1 v -1 m 1,1 h 2 v 1.001 h -2 v -1.001 m -103.024,8.002 h 1 v 1 h 3.001 v 1.001 h 4.001 v 1 h 4.001 v 1 h 4.001 v 1 h 5.001 v 1.001 h 5.001 v 1 h 5.001 v 1 h -3 v 1 h -2.001 v 1 h -4.001 v 1.001 h -4.001 v 1 h -9.002 v 1 h -6.001 v 1 h -1 v 2.001 h 1 v 3 h 1 v 2.001 h 1 v 3.001 h 1.001 v 2 h -4.001 v 1 h -4.001 v 1.001 h -3.001 v 1 h -4.001 v 1 h -5.001 v 1 h -4.001 v 1 h -3.001 v -1 h 1.001 v -2 h 1 v -2.001 h 1 v -2 h 1 v -1 h 1.001 v -2.001 h 1 v -2 h 1 v -1.001 h 1 v -2 h 1 v -1 h 1.001 v -2.001 h 1 v -1 h 1 v -2 h 1 v -1.001 h 1.001 v -2 h 1 v -1 h 1 v -2.001 h 1 v -1 h 1.001 v -2 h 1 v -1.001 h 2 v -1 m 113.026,22.005 h 1 v 1 h -1 v -1 m 1,1 h 1.001 v 1.001 h -1.001 v -1.001 m -136.031,9.002 h 1 v 1.001 h -1 v -1.001 m 689.158,50.012 v 1 h -3 v 1 h -3.001 v 1.001 h -2.001 v 1 h -3 v 1 h -2.001 v 1 h -2 v 1.001 h -2.001 v 1 h -2 v 1 h -3.001 v 1 h -2 v 1 h -2.001 v 1.001 h -2 v 1 h -2.001 v 1 h -3 v 1 h -2.001 v 1.001 h -2 v 1 h -3.001 v 1 h -3.001 v 1 h -2 v 1.001 h -3.001 v 1 h -3 v 1 h -2.001 v 1 h -3.001 v 1 h -3 v 1.001 h -3.001 v 1 h -3.001 v 1 h -2 v 1 h -3.001 v 1.001 h -3 v 1 h -3.001 v 1 h -3.001 v 1 h -3.001 v 1.001 h -3 v 1 h -4.001 v 1 h -3.001 v 1 h -3 v 1 h -3.001 v 1.001 h -3.001 v 1 h -4.001 v 1 h -3 v 1 h -3.001 v 1.001 h -4.001 v 1 h -3.001 v 1 h -3 v 1 h -4.001 v 1.001 h -3.001 v 1 h -4.001 v 1 h -3.001 v 1 h -4.001 v 1 h -3 v 1.001 h -4.001 v 1 h -3.001 v 1 h -4.001 v 1 h -3 v 1.001 h -4.001 v 1 h -3.001 v 1 h -3.001 v 1 h -4.001 v 1 h -4.001 v 1.001 h -3 v 1 h -4.001 v 1 h -5.001 v 1 h -2.001 v 1.001 h -1 v 4.001 h -1 v 4 h -1.001 v 4.001 h -1 v 4.001 h -1 v 3.001 h -1 v 3.001 h -1 v 3 h -1.001 v 2.001 h -1 v 3.001 h -1 v 2 h -1 v 2 h -1.001 v 2.001 h -1 v 2 h -1 v 2.001 h -1 v 2 h -1.001 v 1.001 h -1 v 2 h -1 v 2 h -1 v 1.001 h -1 v 2 h -1.001 v 1 h -1 v 2.001 h -1 v 1 h -1 v 2.001 h -1.001 v 1 h -1 v 2 h -1 v 1 h -1 v 2.001 h -1 v 1 h -1.001 v 1 h -1 v 2.001 h -1 v 1 h -1 v 2 h -1.001 v 1.001 h -1 v 2 h -1 v 1 h -1 v 1.001 h -1.001 v 2 h -1 v 1 h -1 v 2.001 h -1 v 1 h -1 v 3.001 h 3 v -1.001 h 4.001 v -1 h 3.001 v -1 h 3.001 v -1 h 3 v -1 h 3.001 v -1.001 h 3.001 v -1 h 3 v -1 h 3.001 v -1 h 3.001 v -1.001 h 3 v -1 h 3.001 v -1 h 3.001 v -1 h 3 v -1.001 h 3.001 v -1 h 3.001 v -1 h 3 v -1 h 3.001 v -1 h 2.001 v -1.001 h 3 v -1 h 3.001 v -1 h 3.001 v -1 h 3 v -1.001 h 3.001 v -1 h 3.001 v -1 h 3 v -1 h 3.001 v -1 h 3.001 v -1.001 h 3 v -1 h 2.001 v -1 h 3.001 v -1 h 2 v -1.001 h 3.001 v -1 h 2 v -1 h 3.001 v -1 h 3.001 v -1.001 h 2 v -1 h 2.001 v -1 h 3 v -1 h 2.001 v -1 h 2 v -1.001 h 2.001 v -1 h 3 v -1 h 2.001 v -1 h 2 v -1.001 h 2.001 v -1 h 3 v -1 h 2.001 v -1 h 2 v -1.001 h 2.001 v -1 h 2 v -1 h 2.001 v -1 h 2 v -1 h 2.001 v -1.001 h 2 v -1 h 2 v -1 h 2.001 v -1 h 2 v -1.001 h 1.001 v -1 h 2 v -1 h 2.001 v -1 h 2 v -1.001 h 1 v -1 h 2.001 v -1 h 2 v -1 h 1 v -1 h 2.001 v -1.001 h 1 v -1 h 2.001 v -1 h 1 v -1 h 2 v -1.001 h 1 v -1 h 2.001 v -1 h 1 v -1 h 2.001 v -1.001 h 1 v -1 h 1 v -1 h 2.001 v -1 h 1 v -1 h 1 v -1.001 h 1 v -1 h 2.001 v -1 h 1 v -1 h 1 v -1.001 h 1 v -1 h 1.001 v -1 h 2 v -1 h 1 v -1.001 h 1.001 v -1 h 1 v -1 h 1 v -1 h 1 v -1 h 1 v -1.001 h 1.001 v -1 h 1 v -1 h 1 v -1 h 1 v -1.001 h 1.001 v -1 h 1 v -1 h 1 v -1 h 1 v -2.001 h 1.001 v -1 h 1 v -1 h 1 v -1 h 1 v -1.001 h 1 v -2 h 1.001 v -1 h 1 v -1.001 h 1 v -2 h 1 v -1 h 1.001 v -2.001 h 1 v -1 h 1 v -2 h 1 v -1.001 h 1 v -2 h 1.001 v -2.001 h 1 v -2 h 1 v -2 h 1 v -2.001 h 1.001 v -2 h 1 v -2.001 h 1 v -2 h 1 v -2.001 h 1.001 v -3 h 1 v -2.001 h 1 v -3.001 h 1 v -2 h -4.001 m -649.149,23.005 h 1.001 v 1 h -1.001 v -1 m -77.0173,16.004 v 8.002 h 1.0002 v 3 h 1.0002 v 3.001 h 1.0002 v 2.001 h 1.0003 v 3 h 1.0002 v 1 h 1.0002 v 2.001 h 1.0003 v 2 h 1.0002 v 1.001 h 1.0002 v 2 h 1.0003 v 1 h 1 v 1.001 h 1 v 2 h 1.001 v 1 h 1 v 1 h 1 v 1.001 h 1 v 1 h 1.001 v 1 h 1 v 1 h 1 v 1.001 h 1 v 1 h 1 v 1 h 2.001 v 1 h 1 v 1.001 h 1 v 1 h 2.001 v 1 h 1 v 1 h 2.001 v 1 h 1 v 1.001 h 2 v 1 h 2.001 v 1 h 3 v 1 h 2.001 v 1.001 h 4.001 v -2.001 h -1 v -2 h -1.001 v -2.001 h -1 v -2 h -1 v -6.002 h -1 v -1 h 1 v -6.001 h 1 v -2.001 h 1 v -2 h 1.001 v -2.001 h 1 v -1 h 1 v -1 h 1 v -1 h 1 v -1.001 h 1.001 v -1 h 1 v -1 h 2 v -1 h 1.001 v -1 h 1 v -1.001 h 1 v -3 h -1 v -1.001 h -1 v -1 h -1.001 v -1 h -1 v -1 h -1 v -1 h -1 v -1.001 h -1.001 v -1 h -2 v -1 h -2 v -1 h -2.001 v -1.001 h -3.001 v -1 h -5.001 v -1 H 70.5161 m 322.0743,157.036 h 1 v 2 h -1 v -2 m 1,4.001 h 1 v 1 h -1 v -1 m 1,4.001 h 1 v 3 h -1 v -3 m -290.067,27.006 v 1 h -2 v 1 h -3.001 v 1.001 h -2 v 1 h -3.001 v 1 h -4.001 v 1 h -3 v 1.001 h -4.001 v 1 h -3.001 v 1 h -3.0007 v 1 H 74.517 v 1.001 h -3.0007 v 1 h -3.0007 v 1 h -3.0007 v 1 h -3.0007 v 1 h -3.0007 v 1.001 h -3.0007 v 1 h -2.0004 v 1 h -3.0007 v 1 H 48.511 v 1.001 h -3.0007 v 1 h -2.0004 v 1 h -3.0007 v 1 h -2.0005 v 1 H 35.508 v 1.001 h -2.0004 v 1 h -2.0005 v 1 h -3.0007 v 1 H 26.506 v 1.001 h -2.0005 v 1 H 22.505 v 1 h -2.0004 v 1 h -2.0005 v 1.001 h -1.0002 v 1 h -2.0005 v 1 H 13.503 v 1 h -1.0003 v 1 h -2.0004 v 1.001 H 9.5020997 v 1 h -2.0005 v 1 h -1.0002 v 1 h -2.0005 v 1.001 h -1.0002 v 1 h -1.0002 v 1 h -1.0003 v 1 H 0.49999962 v 6.002 H 1.5001997 v 3 h 1.0003 v 3.001 h 1.0002 v 3.001 h 1.0002 v 3 h 1.0002 v 3.001 h 1.0003 v 3.001 h 1.0002 v 3.001 h 1.0002 v 2 h 1.0003 v 3.001 H 10.5023 v 3 h 1.0002 v 3.001 h 1.0002 v 3.001 h 1.0003 v 3 h 1.0002 v 3.001 h 1.0002 v 3.001 h 1.0003 v 3 h 1.0002 v 2.001 h 1.0002 v 3.001 h 1.0003 v 3 h 1.0002 v 3.001 h 1.0002 v 3.001 h 1.0002 v 3 h 1.0003 v 3.001 h 1.0002 v 3.001 h 1.0002 v 3 h 1.0003 v 3.001 h 1.0002 v 2.001 h 1.0002 v 3 h 1.0002 v 3.001 h 1.0003 v 3.001 h 1.0002 v 3 h 1.0002 v 3.001 h 1.0003 v 3.001 h 1.0002 v 4.001 h 1.0002 v 3 h 1.0003 v 3.001 h 1.0002 v 4.001 h 1.0002 v 2 h 42.0097 v -1 h 1 v 1 h 17.004 v 1.001 h 1 v 1 h 1.001 v 1 h 2 v 1 h 1 v 1.001 h 1 v 1 h 2.001 v 1 h 1 v 1 h 2.001 v 1 h 1 v 1.001 h 1 v 1 h 2.001 v 1 h 1 v 1 h 2 v 1.001 h 1 v 1 h 2.001 v 1 h 1 v 1 h 1 v 1.001 h 2.001 v 1 h 1 v 1 h 2.001 v 1 h 1 v 1 h 2 v 1.001 h 1 v 1 h 2.001 v 1 h 1 v 1 h 1 v 1.001 h 2.001 v 1 h 1 v 1 h 2.001 v 1 h 1 v 1.001 h 1 v 1 h 2 v 1 h 1.001 v 1 h 1 v 1 h 1 v 1.001 h 2.001 v 1 h 1 v 1 h 1 v 1 h 2 v 1.001 h 1.001 v 1 h 2 v -11.003 h 1 v -29.006 h -1 v -2.001 h -1 v -1 h -2.001 v -1 h -3 v -1.001 h -3.001 v -1 h -3.001 v -1 h -2 v -1 h -3.001 v -1 h -2 v -1.001 h -3.001 v -1 h -2 v -1 h -2.001 v -1 h -2 v -1.001 h -3.001 v -1 h -2 v -1 h -2.001 v -1 h -1 v -1.001 h -2.001 v -1 h -2 v -1 h 9.002 v -1 h 1 v 1 h 14.004 v 1 h 17.003 v -2 h -1 v -1 h -1 v -1.001 h -1 v -1 h -1.001 v -2 h -1 v -1.001 h -1 v -1 h -1 v -2 h -1 v -1 h -1.001 v -1.001 h -1 v -1 h -1 v -1 h -1 v -2.001 h -1.001 v -1 h -1 v -1 h -1 v -1 h -1 v -1.001 h -1 v -2 h -1.001 v -1 h -1 v -1 h -1 v -1.001 h -1 v -1 h -5.002 v -1 h -10.002 v -1 h -10.002 v -1.001 h -12.003 v -1 h -12.003 v -1 h -7.0013 v -1 h -3.0007 v -2.001 h -1.0002 v -2 H 74.517 v -2.001 h -1.0003 v -2 h -1.0002 v -2.001 h -1.0002 v -3 h -1.0002 v -2.001 h -1.0003 v -4.001 h -1.0002 v -3 h -1.0002 v -4.001 h -1.0003 v -4.001 h -1.0002 v -2.001 h 4.0009 v -1 h 4.0009 v -1 h 4.001 v -1 h 4.0007 v -1.001 h 5.001 v -1 h 5.001 v -1 h 4.001 v -1 h 4.001 v -1 h 5.001 v -1.001 h 4.001 v -1 h 4.001 v -1 h 6.002 v -1 h 7.001 v -1.001 h 49.012 v -1 h -1.001 v -1 h -1 v -1 h -1 v -1.001 h -2.001 v -1 h -1 v -1 h -2 v -1 h -1.001 v -1 h -1 v -1.001 h -2 v -1 h -1 v -1 h -1.001 v -1 h -2 v -1.001 h -1 v -1 h -1.001 v -1 h -2 v -1 h -1 v -1.001 h -1.001 v -1 h -1 v -1 h -1 v -1 h -2 v -1 h -1.001 v -1.001 h -1 v -1 h -1 v -1 h -1 v -1 h -1.001 v -1.001 h -1 v -1 h -1 v -1 h -1 v -1 h -1 v -1.001 h -1.001 v -1 h -1 v -1 h -1 v -1 h -1 v -1 h -1.001 v -2.001 h -1 v -1 h -1 v -1 h -1 v -1.001 h -1.001 v -1 h -1 v -1 h -1 v -1 h -1 v -2.001 h -1 v -1 h -1.001 v -1 h -1 v -1 h -1 v -1.001 h -1 v -1 h -1.001 v -1 h -1 v -1 h -1 v -2.001 h -1 v -1 h -1.001 v -1 h -1 v -1 h -1 v -1.001 h -1 v -1 h -1 v -1 h -1.001 v -1 h -1 v -1.001 h -1 v -1 h -1 v -1 h -1.001 v -2.001 h -1 v -1 h -1 v -1 h -2.001 m 442.102,56.013 h 2 v 1 h -2 v -1 m -21.005,42.009 v 5.002 h 1 v 2 h 1.001 v 3.001 h 1 v 2 h 1 v 2.001 h 1 v 2 h 1 v 3.001 h 1.001 v 2 h 1 v 2.001 h 1 v 2 h 1 v 3.001 h 1.001 v 2 h 1 v 2.001 h 1 v 2 h 1 v 2.001 h 1.001 v 2 h 1 v 2.001 h 1 v 2 h 1 v 2.001 h 1 v 1 h 1.001 v 2 h 1 v 2.001 h 1 v 2 h 1 v 1 h 1.001 v 2.001 h 1 v 1 h 1 v 2.001 h 1 v 2 h 1.001 v 1 h 1 v 2.001 h 1 v 1 h 1 v 2 h 1 v 1.001 h 1.001 v 1 h 1 v 2 h 1 v 1.001 h 1 v 1 h 1.001 v 2 h 1 v 1 h 1 v 1.001 h 1 v 1 h 1.001 v 2 h 1 v 1.001 h 1 v 1 h 1 v 1 h 1 v 1 h 1.001 v 1.001 h 1 v 1 h 1 v 1 h 1 v 1 h 1.001 v 1 h 1 v 1.001 h 1 v 1 h 1 v 1 h 1.001 v 1 h 1 v 1.001 h 1 v 1 h 1 v 1 h 1 v 1 h 1.001 v 1.001 h 2 v 1 h 1 v 1 h 1.001 v 1 h 1 v 1 h 2 v 1.001 h 1 v 1 h 2.001 v 1 h 1 v 1 h 2.001 v 1.001 h 1 v 1 h 2 v 1 h 1.001 v 1 h 2 v 1.001 h 2 v 1 h 2.001 v 1 h 1 v 1 h 2.001 v 1 h 2 v 1.001 h 2.001 v 1 h 1 v 1 h 2 v 1 h 1 v 1.001 h 2.001 v 1 h 1 v 1 h 1 v 1 h 2.001 v 1 h 1 v 1.001 h 1 v 1 h 1.001 v 1 h 1 v 2.001 h 1 v 2 h 1 v 1 h 1 v 2.001 h 1.001 v 2 h 1 v 1 h -1 v 1.001 h -1.001 v 2 h -1 v 2.001 h -1 v 1 h -1 v 2 h -1 v 2.001 h -1.001 v 1 h -1 v 2 h -1 v 1.001 h -1 v 2 h -1.001 v 1 h -1 v 1.001 h -1 v 1 h -1 v 1 h -1.001 v 2.001 h -1 v 1 h -1 v 1 h -1 v 1 h -1 v 1 h -1.001 v 1.001 h -1 v 1 h -1 v 1 h -1 v 1 h -1.001 v 1.001 h -1 v 1 h -1 v 1 h -1 v 1 h -1.001 v 1.001 h -1 v 1 h -2 v 1 h -1 v 1 h -1.001 v 1 h -1 v 1.001 h -1 v 1 h -1 v 1 h -1.001 v 1 h -2 v 1.001 h -1 v 1 h -1.001 v 1 h -1 v 1 h -1 v 1 h -1 v 1.001 h -2.001 v 1 h -1 v 1 h -1 v 1 h -1 v 1.001 h -1.001 v 1 h -1 v 1 h -1 v 1 h -2 v 1.001 h -1.001 v 1 h -1 v 1 h -1 v 1 h -1 v 1 h -1.001 v 1.001 h -1 v 1 h -1 v 1 h -1 v 1 h -1.001 v 1.001 h -1 v 1 h -2 v 1 h -1 v 1 h -1.001 v 2.001 h 1.001 v 1 h 1 v 1 h -2.001 v -1 h -3 v -1 h -3.001 v -1 h -3.001 v -1.001 h -4.001 v -1 h -4.001 v -1 h -11.002 v 1 h -1 v 1 h -1.001 v 1.001 h -1 v 1 h -1 v 1 h -1 v 1 h -1.001 v 1 h -1 v 1.001 h -1 v 1 h -1 v 1 h -1 v 2.001 h -1.001 v 1 h -1 v 1 h -1 v 1 h -1 v 1.001 h -1.001 v 1 h -1 v 1 h -1 v 1 h -1 v 1 h -1 v 1.001 h -1.001 v 1 h -1 v 1 h -1 v 1 h -1 v 1.001 h -1.001 v 2 h -1 v 1 h -1 v 1.001 h -1 v 1 h -1.001 v 1 h -1 v 1 h -1 v 1 h -1 v 1.001 h -1 v 1 h -1.001 v 1 h -1 v 1 h -1 v 1.001 h -1 v 1 h -1.001 v 1 h -1 v 1 h -1 v 1 h -1 v 1.001 h -1.001 v 1 h -1 v 1 h -1 v 1 h -1 v 1.001 h 25.006 v -1.001 h 1 v -1 h 1 v -1 h 1 v -1 h 2.001 v -1.001 h 1 v -1 h 1 v -1 h 1 v -1 h 1.001 v -1 h 1 v -1.001 h 2 v -1 h 1 v -1 h 1.001 v -1 h 1 v -1.001 h 1 v -1 h 1 v -1 h 1.001 v -1 h 2 v -1 h 1 v -1.001 h 1.001 v -1 h 1 v -1 h 1 v -1 h 2 v -1.001 h 1.001 v -1 h 1 v -1 h 2 v -1 h 1.001 v -1.001 h 1 v -1 h 2 v -1 h 1.001 v -1 h 1 v 2 h -1 v 1 h -1.001 v 1.001 h -1 v 1 h -1 v 1 h -1 v 2.001 h -1.001 v 1 h -1 v 1 h -1 v 1 h -1 v 1.001 h -1.001 v 2 h -1 v 1 h -1 v 1 h -1 v 1.001 h -1 v 1 h -1.001 v 1 h -1 v 1 h -1 v 1.001 h -1 v 1 h -1.001 v 1 h -1 v 2 h -2 v 1.001 h -1.001 v 1 h -1 v 1 h -1 v 2.001 h 58.013 v -1.001 h 1.001 v -1 h 1 v -1 h 1 v -1 h 1 v -1.001 h 1 v -1 h 1.001 v -1 h 1 v -1 h 1 v -1 h 1 v -1.001 h 1.001 v -1 h 1 v -1 h 1 v -1 h 1 v -1.001 h 1.001 v -1 h 1 v -1 h 1 v -1 h 1 v -1 h 1 v -1.001 h 1.001 v -1 h 1 v -1 h 1 v -1 h 1 v -1.001 h 1.001 v -2 h 1 v -1 h 1 v -1.001 h 1 v -1 h 1.001 v -1 h 1 v -1 h 1 v -1 h 1 v -1.001 h 1 v -1 h 1.001 v -1 h 1 v -1 h 1 v -1.001 h 1 v -1 h 1.001 v -1 h 1 v -1 h 1 v -1.001 h 1 v -1 h 1.001 v -1 h 1 v -1 h 1 v -1 h 1 v -1.001 h 1 v -1 h 1.001 v -1 h 1 v -1 h 1 v -1.001 h 1 v -1 h 1.001 v -1 h 1 v -1 h 1 v -1.001 h 1 v -1 h 1.001 v -1 h 1 v -1 h 1 v -1 h 1 v -1.001 h 1 v -1 h 1.001 v -1 h 1 v -1 h 1 v -1.001 h 1 v -1 h 1.001 v -1 h 1 v -1 h 1 v -1.001 h 1 v -1 h 1 v -1 h 1.001 v -1 h 1 v -1 h 1 v -1.001 h 1 v -1 h 1.001 v -1 h 1 v -1 h 1 v -1.001 h 1 v -1 h 1.001 v -1 h 1 v -1 h 1 v -1 h 1 v -1.001 h 1 v -1 h 1.001 v -1 h 1 v -1 h 1 v -1.001 h 1 v -1 h 1.001 v -1 h 1 v -1 h 1 v -1.001 h 1 v -1 h 1.001 v -1 h 1 v -1 h 1 v -1 h 1 v -1.001 h 1 v -1 h 1.001 v -1 h 1 v -1 h 1 v -1.001 h 1 v -1 h 1.001 v -1 h 1 v -1 h 1 v -1.001 h 1 v -1 h 1.001 v -1 h 1 v -1 h 1 v -1 h 1 v -1.001 h 1 v -1 h 1.001 v -1 h 1 v -1 h 1 v -1.001 h 1 v -1 h 1.001 v -1 h 1 v -1 h 1 v -1.001 h 1 v -1 h 1.001 v -1 h 1 v -1 h 1 v -1 h 1 v -1.001 h 1 v -1 h 1.001 v -1 h 1 v -1 h 1 v -1.001 h 1 v -1 h 1.001 v -1 h 1 v -1 h 1 v -1.001 h 1 v -1 h 1 v -1 h 1.001 v -1 h 1 v -1 h 1 v -1.001 h 2.001 v -1 h 1 v -2 h 2 v -1.001 h 1.001 v -1 h 1 v -2 h -3.001 v -1 h -6.001 v -1.001 h -4.001 v -1 h -4.001 v -1 h -3.001 v -1 h -3 v -1.001 h -2.001 v -1 h -2 v -1 h -3.001 v -1 h -2.001 v -1.001 h -2 v -1 h -1 v -1 h -2.001 v -1 h -2 v -1 h -1 v -1.001 h -2.001 v -1 h -1 v -1 h -2.001 v -1 h -1 v -1.001 h -1 v -1 h -2 v -1 h -1.001 v -1 h -1 v -1.001 h -1 v -1 h -1 v -1 h -1.001 v -1 h -1 v -1 h -1 v -1.001 h -1 v -1 h -1.001 v -1 h -1 v -1 h -1 v -1.001 h -1 v -1 h -1 v -1 h -1.001 v -1 h -1 v -1.001 h -1 v -1 h -1 v -1 h -1.001 v -1 h -1 v -2.001 h -1 v -1 h -1 v -1 h -1.001 v -1 h -1 v -1.001 h -1 v -1 h -1 v -2 h -1 v -1.001 h -1.001 v -1 h -1 v -1 h -1 v -1 h -1 v -1 h -1.001 v -2.001 h -1 v -1 h -1 v -1 h -1 v -1.001 h -1 v -1 h -1.001 v -1 h -1 v -2.001 h -1 v -1 h -1 v -1 h -1.001 v -1 h -1 v -1 h -1 v -1.001 h -1 v -1 h -1.001 v -1 h -1 v -1 h -1 v -1.001 h -1 v -1 h -1 v -1 h -1.001 v -1 h -1 v -1 h -1 v -1.001 h -1 v -1 h -1.001 v -1 h -1 v -1 h -1 v -1.001 h -1 v -1 h -1.001 v -1 h -1 v -1 h -2 v -1.001 h -1 v -1 h -1.001 v -1 h -1 v -1 h -2 v -1 h -1.001 v -1.001 h -1 v -1 h -2 v -1 h -1.001 v -1 h -2 v -1.001 h -2 v -1 h -1.001 v -1 h -2 v -1 h -3.001 v -1.001 h -2 v -1 h -3.001 v -1 h -3.001 v -1 h -3 v -1 h -3.001 v -1.001 h -3.001 v -1 h -4.001 v -1 h -3 v -1 h -5.001 v -1.001 h -4.001 v -1 h -5.002 v -1 h -5.001 v -1 h -7.001 v -1.001 h -20.005 m -445.102,68.016 v 1 h -9.0021 v 1.001 h 1.0002 v 1 h 1.0002 v 1 h 2.0005 v 1 h 1.0002 v 1 h 1.0003 v 1.001 h 1.0002 v 1 h 2.0005 v 1 h 1 v 1 h 1 v 1.001 h 1.001 v 1 h 2 v 1 h 1 v 1 h 1.001 v 1.001 h 1 v 1 h 2 v 1 h 1 v 1 h 1.001 v 1 h 1 v 1.001 h 2 v 1 h 1.001 v 1 h 1 v 1 h 1 v 1.001 h 1 v 1 h 2.001 v 1 h 1 v 1 h 1 v 1.001 h 1 v 1 h 1.001 v 1 h 1 v 1 h 1 v 1 h 2.001 v 1.001 h 1 v 1 h 3.001 v 1 h 22.005 v -2 h -1.001 v -1.001 h -1 v -1 h -1 v -1 h -1 v -1 h -1.001 v -1 h -1 v -1.001 h -2 v -1 h -1 v -1 h -1.001 v -1 h -1 v -1.001 h -2 v -1 h -1.001 v -1 h -1 v -1 h -2 v -1.001 h -1.001 v -1 h -2 v -1 h -1 v -1 h -2.001 v -1 h -1 v -1.001 h -2 v -1 h -1.001 v -1 h -2 v -1 h -1 v -1.001 h -2.001 v -1 h -1 v -1 h -2 v -1 h -1.001 v -1.001 h -1 v -1 h -2 v -1 h -1.001 v -1 h -1 v -1 h -2 v -1.001 h -1.001 v -1 h -11.002 m -37.0085,1 v 2.001 h 1.0002 v 1 h 1.0002 v 1 h 1.0003 v 1 h 1.0002 v 1.001 h 1.0002 v 1 h 1.0002 v 1 h 2.0005 v 1 h 1.0002 v 1.001 h 1.0003 v 1 h 1.0002 v 1 h 1.0002 v 1 h 1.0002 v 1.001 h 1.0003 v 1 h 1.0002 v 1 h 1.0002 v 1 h 2.0005 v 1 h 1.0002 v 1.001 h 1.0003 v 1 h 1.0002 v 1 h 2.0004 v 1 h 1.0003 v 1.001 h 1.0002 v 1 h 2.0005 v 1 h 1.0002 v 1 h 2.0004 v 1.001 h 1.0003 v 1 h 2.0004 v 1 h 2.0005 v 1 h 2.0005 v 1 h 2 v 1.001 h 3.001 v 1 h 19.004 v -1 h -1 v -1.001 h -1 v -1 h -2 v -1 h -1.001 v -1 h -2 v -1 h -1 v -1.001 h -2.001 v -1 h -1 v -1 h -1 v -1 h -1.001 v -1.001 h -2 v -1 h -1 v -1 h -1 v -1 h -2.001 v -1.001 h -1 v -1 h -1 v -1 h -1.001 v -1 h -2 v -1 h -1.0003 v -1.001 h -1.0002 v -1 h -1.0002 v -1 h -2.0005 v -1 H 74.517 v -1.001 h -1.0003 v -1 h -2.0004 v -1 h -1.0002 v -1 h -1.0003 v -1.001 h -2.0004 v -1 h -1.0003 v -1 h -2.0004 v -1 h -1.0002 v -1 H 61.514 v -1.001 H 43.5099 m 110.0255,129.03 v 1 h -1.001 v 1 h -1 v 1.001 h -2 v 1 h -1 v 1 h -1.001 v 1 h -2 v 1.001 h -1 v 1 h -1.001 v 1 h -1 v 1 h -2 v 1 h -1 v 1.001 h -1.001 v 1 h -1 v 1 h -1 v 1 h -1 v 1.001 h -2.001 v 1 h -1 v 1 h -1 v 1 h -1.001 v 1.001 h -1 v 1 h -1 v 1 h -1 v 1 h -1 v 1 h -1.001 v 1.001 h -1 v 1 h -1 v 1 h -1 v 2.001 h -1.001 v 1 h -1 v 1 h -1 v 1 h -1 v 2.001 h -1.001 v 1 h -1 v 1 h -1 v 2.001 h -1 v 1 h -1 v 2 h -1.001 v 1.001 h -1 v 1 h -1 v 2 h -1 v 1 h -1.001 v 2.001 h -1 v 1 h -1 v 2.001 h 2 v 1 h 21.005 v -1 h 5.001 v -1.001 h 1.001 v -1 h 1 v -1 h 1 v -2.001 h 1 v -1 h 1.001 v -1 h 1 v -1 h 1 v -1 h 1 v -1.001 h 1 v -1 h 1.001 v -1 h 1 v -1 h 1 v -1.001 h 1 v -1 h 1.001 v -1 h 1 v -1 h 1 v -1 h 1 v -1.001 h 1 v -1 h 1.001 v -1 h 1 v -1 h 1 v -1.001 h 1 v -1 h 1.001 v -1 h 1 v -1 h 1 v -1.001 h 1 v -1 h 1.001 v -1 h 1 v -1 h 1 v -1 h 1 v -1.001 h 1 v -1 h 1.001 v -1 h 1 v -1 h 1 v -1.001 h 1 v -1 h 1.001 v -1 h 1 v -1 h 1 v -2.001 h 1 v -1 h 1.001 v -1 h 1 v -1 h 1 v -1.001 h 1 v -2 h 1 v -1 h 1.001 v -2.001 h 1 v -1 h -27.006 m 75.017,3.001 h 2 v 1 h -2 v -1 m 3.001,1 h 2 v 1 h -2 v -1 m 273.062,-1 v 1 h -1 v 1 h -1 v 1 h -1 v 1.001 h -1.001 v 1 h -1 v 1 h -1 v 1 h -1 v 1 h -1.001 v 1.001 h -1 v 1 h -1 v 2 h -1 v 1.001 h -1 v 1 h -1.001 v 1 h -1 v 1 h -1 v 1.001 h -1 v 1 h -1.001 v 1 h -1 v 1 h -1 v 1 h -1 v 1.001 h -1.001 v 1 h -1 v 1 h -1 v 1 h -1 v 1.001 h -1 v 1 h -1.001 v 1 h -1 v 1 h -1 v 1.001 h -1 v 1 h -1.001 v 1 h -1 v 1 h -1 v 1 h -1 v 1.001 h -1.001 v 1 h -1 v 1 h -1 v 1 h -1 v 1.001 h -1 v 1 h -1.001 v 1 h -1 v 1 h -1 v 1 h -1 v 1.001 h -1.001 v 1 h -1 v 1 h -1 v 2.001 h 25.006 v -1.001 h 1 v -1 h 1 v -1 h 1 v -1 h 1.001 v -1.001 h 1 v -1 h 1 v -1 h 1 v -1 h 1.001 v -1 h 1 v -1.001 h 1 v -1 h 1 v -1 h 1 v -1 h 1.001 v -1.001 h 1 v -1 h 1 v -1 h 1 v -1 h 1.001 v -1 h 1 v -1.001 h 1 v -1 h 1 v -1 h 1.001 v -1 h 1 v -1.001 h 1 v -1 h 1 v -1 h 1 v -1 h 1.001 v -1.001 h 1 v -1 h 1 v -1 h 1 v -1 h 1.001 v -1 h 1 v -1.001 h 1 v -1 h 1 v -1 h 1.001 v -1 h 1 v -1.001 h 1 v -2 h 1 v -1 h 1 v -1.001 h 1.001 v -1 h 1 v -2 h 1 v -1 h 1 v -1.001 h 1.001 v -2 h -2.001 v -1 h -10.002 v 1 h -1 v -1 h -10.003 m 320.074,2 v 1 h -2.001 v 1.001 h -1 v 1 h -1 v 1 h -1 v 1 h -1.001 v 2.001 h -1 v 1 h -1 v 1 h -1 v 1 h -1.001 v 1.001 h -1 v 1 h -1 v 1 h -1 v 1 h -1 v 1.001 h -1.001 v 1 h -1 v 1 h -1 v 1 h -1 v 1 h -1.001 v 1.001 h -1 v 1 h -1 v 1 h -1 v 2.001 h -1.001 v 1 h -1 v 1 h -1 v 1 h -1 v 1.001 h -1 v 1 h -1.001 v 1 h -1 v 1 h -1 v 1 h -1 v 1.001 h -1.001 v 1 h -1 v 1 h -1 v 1 h -1 v 1.001 h -1.001 v 1 h -1 v 1 h -1 v 1 h -1 v 1 h -1 v 1.001 h -1.001 v 1 h -1 v 1 h -1 v 1 h -1 v 1.001 h 25.005 v -1.001 h 1.001 v -1 h 1 v -1 h 1 v -1 h 1 v -1.001 h 1.001 v -1 h 1 v -1 h 1 v -1 h 1 v -1 h 1 v -1.001 h 1.001 v -1 h 1 v -1 h 1 v -1 h 1 v -1.001 h 1.001 v -1 h 1 v -1 h 1 v -1 h 1 v -1 h 1.001 v -1.001 h 1 v -1 h 1 v -1 h 1 v -1 h 1 v -1.001 h 1.001 v -1 h 1 v -1 h 1 v -1 h 1 v -1.001 h 1.001 v -1 h 1 v -1 h 1 v -1 h 1 v -1 h 1.001 v -1.001 h 1 v -1 h 1 v -1 h 1 v -1 h 1 v -1.001 h 1.001 v -2 h 1 v -1 h 1 v -1.001 h 1 v -1 h 1.001 v -2 h 1 v -1 h 1 v -2.001 h -23.005 m -257.059,5.001 h 2 v 1 h -2 v -1 m 3,1 h 1.001 v 1.001 h -1.001 v -1.001 m 2.001,1.001 h 1 v 1 h -1 v -1 m 5.001,3 h 1 v 1.001 h -1 v -1.001 m -375.086,5.002 h 1 v 1 h -1 v -1 m 352.081,0 h 1 v 1 h -1 v -1 m 316.072,7.001 h 1.001 v 1 h -1.001 v -1 m -1,1 h 1 v 1.001 h -1 v -1.001"
     style="fill:#ffffff;fill-opacity:1" />
</svg>
